<?xml version="1.0" standalone="no"?> <!DOCTYPE svg PUBLIC "-//W3C//DTD SVG 1.0//EN" "http://www.w3.org/TR/2001/REC-SVG-20010904/DTD/svg10.dtd" > <svg xmlns="http://www.w3.org/2000/svg" width="100%" height="100%">
<defs >
<font id="OldStandardTT-Bold" horiz-adv-x="443" ><font-face
    font-family="Old Standard TT"
    units-per-em="1000"
    panose-1="2 4 5 3 5 5 5 2 3 3"
    ascent="948"
    descent="-294"
    alphabetic="0" />
<missing-glyph horiz-adv-x="364" d="M33 0V666H298V0H33ZM66 33H265V633H66V33Z" />
<glyph unicode=" " glyph-name="space" horiz-adv-x="280" />
<glyph unicode="!" glyph-name="exclam" horiz-adv-x="280" d="M58 632Q58 678 81 704T140 730T199 704T222 632Q222 579 195 477Q173 392 168 350L152 205H128L112 350Q109 384 85 477Q58 579 58 632ZM62 32T62 66T84 122T140 144T196 122T218 66T196 10T140 -12T84 10Z" />
<glyph unicode="&quot;" glyph-name="quotedbl" horiz-adv-x="394" d="M72 672Q72 699 85 714T120 730T155 715T168 672Q168 656 163 621L142 482H98L77 621Q72 656 72 672ZM226 672Q226 699 239 714T274 730T309 715T322 672Q322 656 317 621L296 482H252L231
621Q226 656 226 672Z" />
<glyph unicode="#" glyph-name="numbersign" horiz-adv-x="712" d="M66 182V246H189L223 464H72V528H233L262 712H328L299 528H465L494 712H560L531 528H646V464H521L487 246H637V182H477L448 0H382L410 182H245L216 0H150L179 182H66ZM255 246H421L455 464H289L255 246Z" />
<glyph unicode="$" glyph-name="dollar" horiz-adv-x="580" d="M52 166Q52 208 75 234T131 260Q153 260 168 245T184 210Q184 192 178 180T165 161T141 145Q124 135 119 128T114 108Q114 80 145 57T226 24V320L173 353Q76 414 76 527Q76 607 118 654T226 718V796H258V725Q282
728 304 728Q318 728 342 726V796H374V721Q442 708 485 668T528 566Q528 524 508 491T456 458Q430 458 415 472T399 508Q399 526 410 541T438 563Q452 570 459 574T471 585T476 603Q476 629 449 652T374 688V399L413 375Q526 305 526 189Q526 109 484 60T374 -7V-84H342V-13Q321
-16 301 -16Q273 -16 258 -14V-84H226V-9Q190 -2 161 10T106 43T66 95T52 166ZM258 471L342 419V693Q322 696 300 696Q276 696 258 692V471ZM258 18Q286 16 301 16Q324 16 342 19V248L258 300V18ZM152 589Q152 534 226 491V682Q192 669 172 645T152 589ZM374 27Q400
36 417 53T440 87T446 121Q446 143 439 161T419 193T397 213T374 228V27Z" />
<glyph unicode="%" glyph-name="percent" horiz-adv-x="860" d="M188 -18L620 730H670L238 -18H188ZM584 166Q584 76 594 40T628 4T663 40T674 166T663 293T628 330T594 294T584 166ZM488 85T488 166T530 298T628 350T727 299T770 166Q770 86 728 35T628 -16Q572
-16 530 34ZM186 546Q186 456 196 420T230 384T265 420T276 546T265 673T230 710T196 674T186 546ZM90 465T90 546T132 678T230 730T329 679T372 546Q372 466 330 415T230 364Q174 364 132 414Z" />
<glyph unicode="&amp;" glyph-name="ampersand" horiz-adv-x="786" d="M44 141Q44 205 91 261T230 382L253 398L242 415Q215 456 204 487T192 566Q192 642 241 686T361 731Q392 731 416 719T454 688T474 648T480 607Q480 579 472 555T446 509T410 471T363 433L539
169Q569 205 588 247T607 318Q607 336 596 347T569 358H531V390H742V358H734Q680 358 646 286Q601 192 558 142Q588 92 609 67T655 42Q674 42 690 59T720 105L740 95Q734 78 723 60T696 24T655 -6T603 -18Q570 -18 536 4T477 61Q440 31 375 7T248 -18Q158 -18 101
24T44 141ZM184 193Q184 146 209 111T269 59T340 42Q406 42 459 88L273 369Q248 346 233 330T206 293T189 248T184 193ZM284 622Q284 580 295 552T344 463Q366 479 380 492T408 524T429 565T436 615Q436 651 416 675T362 699Q331 699 308 678T284 622Z" />
<glyph unicode="&apos;" glyph-name="quotesingle" horiz-adv-x="240" d="M72 672Q72 699 85 714T120 730T155 715T168 672Q168 656 163 621L142 482H98L77 621Q72 656 72 672Z" />
<glyph unicode="(" glyph-name="parenleft" horiz-adv-x="370" d="M60 122T60 266T132 527T338 730L354 704Q265 633 231 567T196 408V124Q196 31 230 -35T354 -172L338 -198Q204 -112 132 5Z" />
<glyph unicode=")" glyph-name="parenright" horiz-adv-x="370" d="M16 -172Q105 -101 139 -35T174 124V408Q174 501 140 567T16 704L32 730Q166 644 238 527T310 266T238 5T32 -198L16 -172Z" />
<glyph unicode="*" glyph-name="asterisk" horiz-adv-x="502" d="M70 415Q70 438 88 452T139 467Q186 467 213 484Q223 489 223 495Q223 498 221 500T216 504L213 506Q186 523 139 523Q106 523 88 537T70 575Q70 594 83 607T116 621Q146 621 174 580Q196 547 221
528Q230 522 235 522T241 525T243 537Q243 571 224 606Q209 630 209 655Q209 674 222 687T255 700T287 687T301 655Q301 630 286 606Q267 571 267 537Q267 528 268 525T275 522T289 528Q314 547 336 580Q364 621 394 621Q413 621 426 608T440 575Q440 552 422 538T371
523Q324 523 297 506Q287 501 287 495Q287 492 289 490T294 486L297 484Q324 467 371 467Q404 467 422 453T440 415Q440 396 427 383T394 369Q364 369 336 410Q314 443 289 462Q280 468 275 468T269 465T267 453Q267 419 286 384Q301 360 301 335Q301 316 288 303T255
290T223 303T209 335Q209 360 224 384Q243 419 243 453Q243 462 242 465T235 468T221 462Q196 443 174 410Q146 369 116 369Q97 369 84 382T70 415Z" />
<glyph unicode="+" glyph-name="plus" horiz-adv-x="940" d="M42 240V304H436V700H504V304H898V240H504V-156H436V240H42Z" />
<glyph unicode="," glyph-name="comma" horiz-adv-x="280" d="M46 63Q46 103 72 125T132 148Q180 148 209 115T238 32Q238 -50 190 -109T66 -196L52 -168Q114 -144 153 -101T192 -10Q192 -3 188 2T175 8Q167 8 151 0Q133 -9 117 -9Q90 -9 68 10T46 63Z" />
<glyph unicode="-" glyph-name="hyphen" horiz-adv-x="370" d="M56 208V310H314V208H56Z" />
<glyph unicode="." glyph-name="period" horiz-adv-x="280" d="M62 32T62 66T84 122T140 144T196 122T218 66T196 10T140 -12T84 10Z" />
<glyph unicode="/" glyph-name="slash" horiz-adv-x="450" d="M50 -198L332 730H400L118 -198H50Z" />
<glyph unicode="0" glyph-name="zero" horiz-adv-x="580" d="M220 144Q220 124 223 104T233 63T255 29T290 16T324 29T346 62T357 103T360 144V568Q360 588 357 608T347 649T325 683T290 696T256 683T234 650T223 609T220 568V144ZM50 305T50 356T60 459T91 560T140
645T207 705T290 728T373 706T440 646T489 560T520 460T530 356T520 253T489 152T440 67T373 7T290 -16T207 6T140 66T91 152T60 252Z" />
<glyph unicode="1" glyph-name="one" horiz-adv-x="580" d="M120 0V32H192Q206 32 211 37T216 56V603H120V639H157Q200 639 238 658T289 712H364V56Q364 42 369 37T388 32H460V0H120Z" />
<glyph unicode="2" glyph-name="two" horiz-adv-x="580" d="M64 534Q64 615 126 671T280 728Q390 728 447 677T504 544Q504 518 496 494T476 451T442 411T402 376T354 343T305 314T255 287Q146 228 122 137L126 135Q162 164 207 164Q224 164 250 159T293 148Q344
132 384 132Q420 132 444 153T468 204Q468 232 463 271H494Q500 228 500 193Q500 164 495 136T478 80T447 31T400 -3T336 -16Q272 -16 206 58Q187 79 175 87T144 96Q130 96 121 87T112 64V0H72V47Q72 70 73 85T81 127T102 178T140 236T201 303Q236 336 259 361T306
420T342 489T354 560Q354 586 349 608T334 649T303 680T253 692Q215 692 190 668T164 610Q164 570 192 550Q214 534 225 519T237 480Q237 454 218 437T170 420Q127 420 96 451T64 534Z" />
<glyph unicode="3" glyph-name="three" horiz-adv-x="580" d="M56 141Q56 182 83 212T152 243Q186 243 206 225T226 177Q226 128 180 108Q152 95 152 74Q152 46 178 31T250 16Q356 16 356 193Q356 276 327 316T255 356H154V392H253Q300 392 321 427T343 538Q343
585 337 616T319 665T292 689T256 696Q218 696 191 675T164 619Q164 597 194 577Q229 554 229 517Q229 492 212 475T164 457Q127 457 101 486T74 561Q74 636 130 682T268 728Q368 728 430 680T493 550Q493 513 479 483T439 432T387 400T329 381V372Q376 368 418
345T488 281T516 189Q516 90 445 37T253 -16Q168 -16 112 26T56 141Z" />
<glyph unicode="4" glyph-name="four" horiz-adv-x="580" d="M100 240H270V544L100 240ZM50 204V241L313 713H418V240H526V204H418V56Q418 42 423 37T442 32H514V0H150V32H246Q260 32 265 37T270 56V204H50Z" />
<glyph unicode="5" glyph-name="five" horiz-adv-x="580" d="M76 138Q76 184 106 214T173 245Q205 245 222 226T239 180Q239 140 196 118Q166 107 166 76Q166 52 191 34T264 16Q284 16 300 24T326 48T342 81T351 124T355 171T356 221Q356 329 336 374T259 420Q228
420 188 390T138 318H112V703L132 716Q194 678 270 678Q309 678 356 691T440 728L458 710Q406 630 325 593T152 556V400L158 398Q210 452 286 452Q391 452 453 390T516 224Q516 152 481 96T390 12T267 -16Q182 -16 129 29T76 138Z" />
<glyph unicode="6" glyph-name="six" horiz-adv-x="580" d="M232 195Q232 104 251 60T313 16Q328 16 340 21T359 34T371 57T379 85T384 120T386 158T386 200Q386 238 384 266T375 323T355 367T322 382Q268 382 248 340Q232 308 232 195ZM72 339Q72 454 104 542T197
679T342 728Q412 728 452 688T492 592Q492 549 467 519T402 489Q372 489 354 507T335 556Q335 602 380 618Q400 625 410 632T420 650Q420 670 399 683T341 696Q303 696 278 671T242 611T232 533V390L238 387Q271 420 335 420Q386 420 425 404T487 358T522 291T534
210Q534 168 521 129T483 57T414 4T314 -16Q240 -16 184 33T100 162T72 339Z" />
<glyph unicode="7" glyph-name="seven" horiz-adv-x="580" d="M94 428L117 712H153L148 646L152 644Q210 720 279 720Q300 720 319 710T348 688T372 657Q392 628 408 612T440 596Q472 596 472 626Q472 644 452 656Q427 670 427 693Q427 705 434 712T457 720Q482
720 499 690T516 628Q516 563 497 510T437 389Q370 279 370 87Q370 35 350 10T293 -16T233 12T210 88Q210 120 219 151T245 211T279 263T322 316Q400 406 438 470Q463 514 474 563L470 566Q439 540 401 540Q361 540 314 558Q272 572 232 572Q190 572 164 552T135
488L130 428H94Z" />
<glyph unicode="8" glyph-name="eight" horiz-adv-x="580" d="M162 588Q162 548 180 527T233 489L364 426Q404 442 427 480T450 564Q450 625 407 660T309 696Q291 696 273 693T234 682T198 662T172 631T162 588ZM56 167Q56 200 67 229T97 279T136 314T177 338V340Q70
403 70 521Q70 571 91 611T146 677T220 715T302 728T376 718T432 691T469 653T491 610T498 569Q498 518 467 478T392 415V411L411 401Q470 372 504 322T538 221Q538 173 522 131T475 55T395 3T286 -16Q244 -16 204 -4T131 31T77 89T56 167ZM124 183Q124 143 138
112T174 64T222 35T271 20T313 16Q379 16 420 51T462 134Q462 156 454 174T432 205T404 227T372 246L206 328Q186 318 174 308T149 282T130 241T124 183Z" />
<glyph unicode="9" glyph-name="nine" horiz-adv-x="580" d="M214 512Q214 474 216 446T225 389T245 345T278 330Q332 330 352 372Q368 404 368 517Q368 608 349 652T287 696Q272 696 260 691T241 678T229 655T221 627T216 592T214 554T214 512ZM66 502Q66 544
79 583T117 655T186 708T286 728Q360 728 416 679T500 550T528 373Q528 258 496 170T403 33T258 -16Q188 -16 148 24T108 120Q108 163 133 193T198 223Q228 223 246 205T265 156Q265 110 220 94Q200 87 190 80T180 62Q180 42 201 29T259 16Q297 16 322 41T358 101T368
179V322L362 325Q329 292 265 292Q214 292 175 308T113 354T78 421T66 502Z" />
<glyph unicode=":" glyph-name="colon" horiz-adv-x="280" d="M62 374T62 408T84 464T140 486T196 464T218 408T196 352T140 330T84 352ZM62 32T62 66T84 122T140 144T196 122T218 66T196 10T140 -12T84 10Z" />
<glyph unicode=";" glyph-name="semicolon" horiz-adv-x="280" d="M46 63Q46 103 72 125T132 148Q180 148 209 115T238 32Q238 -50 190 -109T66 -196L52 -168Q114 -144 153 -101T192 -10Q192 -3 188 2T175 8Q167 8 151 0Q133 -9 117 -9Q90 -9 68 10T46 63ZM62
374T62 408T84 464T140 486T196 464T218 408T196 352T140 330T84 352Z" />
<glyph unicode="&lt;" glyph-name="less" horiz-adv-x="940" d="M84 252V292L822 700L854 644L180 272L854 -100L822 -156L84 252Z" />
<glyph unicode="=" glyph-name="equal" horiz-adv-x="940" d="M48 344V408H892V344H48ZM48 136V200H892V136H48Z" />
<glyph unicode="&gt;" glyph-name="greater" horiz-adv-x="940" d="M86 -100L760 272L86 644L118 700L856 292V252L118 -156L86 -100Z" />
<glyph unicode="?" glyph-name="question" horiz-adv-x="470" d="M170 32T170 66T192 122T248 144T304 122T326 66T304 10T248 -12T192 10ZM72 586Q72 645 114 688T229 732Q300 732 346 691T392 588Q392 507 269 394Q248 374 236 362T211 332T191 295T184 256Q184
231 202 219T245 206T285 225T301 272Q301 284 296 298L320 308Q329 288 329 271Q329 230 305 203T245 176Q206 176 178 197T150 257Q150 316 202 397Q219 424 228 441T249 484T265 538T270 601Q270 640 251 666T198 692Q158 692 132 660T106 584Q106 548 114 526T144
476L121 459Q96 490 84 518T72 586Z" />
<glyph unicode="@" glyph-name="at" horiz-adv-x="820" d="M44 347Q44 451 94 539T231 678T422 730Q502 730 569 702T681 627T751 518T776 386Q776 356 767 322T740 254T695 192T631 147T548 130Q510 130 485 150T455 206L451 207Q439 191 424 176T380 146T321
130Q272 130 236 162T200 254Q200 318 216 380T263 481Q341 578 432 578Q458 578 475 562T499 523H503L514 566H621L548 257Q543 230 543 214Q543 188 554 175T579 162Q610 162 635 185T674 244T696 320T704 397Q704 536 624 617T412 698Q352 698 297 672T203 600T140
487T116 344Q116 193 199 104T426 14Q474 14 518 31T594 70L609 43Q578 20 526 1T404 -18Q330 -18 264 8T149 81T72 197T44 347ZM308 223Q308 192 319 173T345 154Q382 154 413 208T459 335Q483 436 483 475Q483 511 472 532T442 554Q412 554 388 527T341 434Q327
396 318 337T308 223Z" />
<glyph unicode="A" glyph-name="A" horiz-adv-x="754" d="M245 226H430L339 501L245 226ZM44 0V32H78Q108 32 131 56T166 113L377 730H419L633 83Q650 32 692 32H732V0H381V32H453Q464 32 472 41T480 64Q480 75 474 93L442 189H232L211 128Q200 100 200 77Q200
60 214 46T252 32H299V0H44Z" />
<glyph unicode="B" glyph-name="B" horiz-adv-x="710" d="M304 56Q304 42 309 37T328 32H396Q422 32 440 39T473 64T495 114T502 194T495 273T474 323T441 348T396 356H304V56ZM62 0V32H132Q146 32 151 37T156 56V656Q156 670 151 675T132 680H62V712H414Q474
712 525 691T607 630T638 542Q638 508 623 479T583 430T530 397T469 375V369Q502 364 535 351T597 316T644 263T662 194Q662 133 629 89T544 22T427 0H62ZM304 388H396Q424 388 443 399T471 431T484 478T488 542Q488 608 465 644T402 680H328Q314 680 309 675T304
656V388Z" />
<glyph unicode="C" glyph-name="C" horiz-adv-x="660" d="M70 356Q70 432 89 499T143 618T232 700T350 730Q387 730 418 717T485 681Q508 666 519 666Q532 666 541 685L559 722H592V415H560Q538 544 481 621T350 698Q302 698 271 652T240 506V206Q240 154 251
116T279 56T317 24T360 14Q478 14 537 123Q566 176 576 275H612Q604 175 571 109Q540 49 487 16T360 -18Q304 -18 256 3T174 60T116 143T81 245T70 356Z" />
<glyph unicode="D" glyph-name="D" horiz-adv-x="786" d="M304 56Q304 42 309 37T328 32H417Q482 32 524 76T566 206V506Q566 592 524 636T417 680H328Q314 680 309 675T304 656V56ZM62 0V32H132Q146 32 151 37T156 56V656Q156 670 151 675T132 680H62V712H434Q496
712 551 686T647 615T712 504T736 362Q736 260 695 177T585 47T434 0H62Z" />
<glyph unicode="E" glyph-name="E" horiz-adv-x="690" d="M62 0V32H132Q146 32 151 37T156 56V656Q156 670 151 675T132 680H62V712H624L630 480H598Q588 544 558 594Q509 680 438 680H328Q314 680 309 675T304 656V380H355Q382 380 405 402T442 456T455 518H487V205H455Q455
235 442 267T406 321T355 344H304V56Q304 42 309 37T328 32H437Q466 32 491 46T535 83T565 128T585 174Q591 190 596 216T604 259L606 276H638L632 0H62Z" />
<glyph unicode="F" glyph-name="F" horiz-adv-x="670" d="M62 0V32H132Q146 32 151 37T156 56V656Q156 670 151 675T132 680H62V712H626L634 438H602Q591 518 566 571Q545 616 510 648T430 680H328Q314 680 309 675T304 656V380H355Q382 380 405 402T442 456T455
518H487V205H455Q455 235 442 267T406 321T355 344H304V56Q304 42 309 37T328 32H419V0H62Z" />
<glyph unicode="G" glyph-name="G" horiz-adv-x="720" d="M70 356Q70 430 92 498T153 618T248 699T368 730Q411 730 442 718T510 681Q534 666 544 666Q558 666 566 685L583 722H616V434H585Q550 562 496 630T368 698Q307 698 274 653T240 506V206Q240 14 350 14Q402
14 435 58T468 161V298Q468 312 463 317T444 322H356V354H688V322H640Q626 322 621 317T616 298V-13H584L560 78Q558 88 552 95T536 103Q518 103 505 82Q494 66 481 51T448 19T403 -8T350 -18Q286 -18 233 12T144 94T89 213T70 356Z" />
<glyph unicode="H" glyph-name="H" horiz-adv-x="824" d="M62 0V32H132Q146 32 151 37T156 56V656Q156 670 151 675T132 680H62V712H398V680H328Q314 680 309 675T304 656V392H540V656Q540 670 535 675T516 680H444V712H782V680H712Q698 680 693 675T688 656V56Q688
42 693 37T712 32H782V0H446V32H516Q530 32 535 37T540 56V356H304V56Q304 42 309 37T328 32H398V0H62Z" />
<glyph unicode="I" glyph-name="I" horiz-adv-x="440" d="M62 0V32H132Q146 32 151 37T156 56V656Q156 670 151 675T132 680H62V712H398V680H328Q314 680 309 675T304 656V56Q304 42 309 37T328 32H398V0H62Z" />
<glyph unicode="J" glyph-name="J" horiz-adv-x="540" d="M36 154Q36 206 63 238T126 271Q158 271 177 251T197 202Q197 168 180 148T136 118Q119 112 112 102T104 76Q104 54 132 34T202 14Q278 14 278 130V656Q278 670 273 675T254 680H174V712H512V680H450Q436
680 431 675T426 656V194Q426 145 407 104T358 36T291 -4T214 -18Q165 -18 126 1T61 60T36 154Z" />
<glyph unicode="K" glyph-name="K" horiz-adv-x="770" d="M62 0V32H132Q146 32 151 37T156 56V656Q156 670 151 675T132 680H62V712H390V680H328Q314 680 309 675T304 656V360L497 584Q511 600 516 611T522 638Q522 656 512 668T486 680H457V712H704V680H669Q648
680 626 665T586 630L452 475L663 76Q676 51 688 42T723 32H750V0H436V32H476Q485 32 491 38T497 53Q497 68 492 78L347 354L304 305V56Q304 42 309 37T328 32H390V0H62Z" />
<glyph unicode="L" glyph-name="L" horiz-adv-x="670" d="M62 0V32H132Q145 32 150 38T156 59V656Q156 670 151 675T132 680H62V712H398V680H328Q314 680 309 675T304 656V59Q304 45 309 39T328 32H429Q452 32 474 45T512 77T542 121T564 166T579 206Q584 222
590 248T600 291L604 308H636L628 0H62Z" />
<glyph unicode="M" glyph-name="M" horiz-adv-x="890" d="M48 0V32Q92 32 122 54T152 122V656Q152 670 147 675T128 680H48V712H287L470 220L604 712H858V680H788Q774 680 769 675T764 656V56Q764 42 769 37T788 32H858V0H522V32H592Q606 32 611 37T616 56V625L442
-12H403L199 537H192V122Q192 77 222 55T296 32V0H48Z" />
<glyph unicode="N" glyph-name="N" horiz-adv-x="764" d="M48 0V32Q102 32 138 61T174 136V563Q174 574 172 579T163 594L123 654Q113 668 102 674T66 680H48V712H270L590 255V576Q590 622 554 651T464 680V712H756V680Q702 680 666 651T630 576V-18H592L218 517H214V136Q214
90 250 61T340 32V0H48Z" />
<glyph unicode="O" glyph-name="O" horiz-adv-x="712" d="M70 286T70 356T94 495T158 615T253 698T366 730T479 698T574 615T638 495T662 356T638 217T574 97T479 14T366 -18T253 14T158 97T94 217ZM240 206Q240 103 273 59T366 14T459 58T492 206V506Q492 609
459 653T366 698T273 654T240 506V206Z" />
<glyph unicode="P" glyph-name="P" horiz-adv-x="702" d="M62 0V32H132Q146 32 151 37T156 56V656Q156 670 151 675T132 680H62V712H418Q524 712 591 660T658 526Q658 443 591 390T418 336H304V56Q304 42 309 37T328 32H416V0H62ZM304 368H403Q430 368 449 380T478
414T493 464T498 526Q498 599 477 639T403 680H328Q314 680 309 675T304 656V368Z" />
<glyph unicode="Q" glyph-name="Q" horiz-adv-x="712" d="M70 356Q70 426 94 495T158 615T253 698T366 730T479 698T574 615T638 495T662 356Q662 247 608 151T471 9Q479 -110 555 -110Q594 -110 614 -77T634 8Q634 29 631 56H661Q666 24 666 -21Q666 -114 642
-164Q626 -198 597 -218T532 -238Q486 -238 451 -203T415 -110Q415 -48 419 -11Q395 -18 367 -18Q288 -18 219 36T110 176T70 356ZM240 206Q240 102 275 55L277 56Q274 68 274 80Q274 114 297 140T362 166Q404 166 431 139T464 71H467Q492 121 492 206V506Q492
609 459 653T366 698T273 654T240 506V206ZM302 75Q302 30 332 18Q340 14 366 14Q394 14 421 25Q421 44 420 57T415 85T403 110T383 126T351 133Q330 133 316 115T302 75Z" />
<glyph unicode="R" glyph-name="R" horiz-adv-x="730" d="M304 396H371Q398 396 417 407T446 439T461 485T466 544Q466 612 445 646T371 680H328Q314 680 309 675T304 656V396ZM62 0V32H132Q146 32 151 37T156 56V656Q156 670 151 675T132 680H62V712H386Q494
712 560 665T626 536Q626 467 575 427T442 377V370Q480 363 507 351T557 319T592 264T604 185V74Q604 32 632 32Q658 32 670 75T682 180H714Q714 143 711 114T700 59T679 14T645 -14T595 -24Q531 -24 494 14T456 126V250Q456 298 433 331T360 364H304V56Q304 42
309 37T328 32H416V0H62Z" />
<glyph unicode="S" glyph-name="S" horiz-adv-x="620" d="M90 306H122Q132 250 154 198T205 105T273 39T353 14Q388 14 413 22T453 42T476 70T487 100T490 128Q490 154 471 175T418 218L204 356Q92 428 92 538Q92 588 108 626T152 686T215 719T288 730Q358 730
430 680Q454 662 466 662Q484 662 488 685L494 712H526L536 452H504Q476 558 414 628T280 698Q176 698 176 614Q176 557 265 499L480 360Q521 333 545 286T570 188Q570 150 556 114T516 48T446 0T347 -18Q264 -18 210 26Q188 44 178 50T158 56Q136 56 132 22L127
-10H96L90 306Z" />
<glyph unicode="T" glyph-name="T" horiz-adv-x="716" d="M60 414L68 712H668L676 414H644Q640 448 623 508Q610 552 591 589T541 653T479 680Q462 680 452 671T442 646V56Q442 42 447 37T466 32H546V0H190V32H270Q284 32 289 37T294 56V646Q294 662 284 671T257
680Q225 680 195 654T146 590T113 508Q106 482 101 458T94 424L92 414H60Z" />
<glyph unicode="U" glyph-name="U" horiz-adv-x="794" d="M68 680V712H392V680H328Q314 680 309 675T304 656V198Q304 106 339 64T447 22Q521 22 569 73T618 198V590Q618 635 588 657T514 680V712H762V680Q718 680 688 658T658 590V208Q658 111 594 47T419 -18Q364
-18 319 -4T244 34T194 91T165 160T156 237V656Q156 670 151 675T132 680H68Z" />
<glyph unicode="V" glyph-name="V" horiz-adv-x="772" d="M46 680V712H393V680H343Q328 680 319 673T309 655T313 633L461 212L576 569Q586 599 586 620Q586 642 572 661T530 680H480V712H750V680H719Q652 680 623 589L426 -18H384L158 622Q147 655 130 667T79 680H46Z" />
<glyph unicode="W" glyph-name="W" horiz-adv-x="1076" d="M44 680V712H369V680H340Q326 680 318 670T309 645Q309 634 314 620L440 235L534 555L512 622Q501 655 484 667T433 680H416V712H744V680H695Q682 680 673 671T663 651Q663 641 666 629L793 239L884 568Q891
589 891 622Q891 644 879 662T838 680H788V712H1058V680H1027Q960 680 931 589L762 -18H720L556 488L408 -18H366L158 615Q147 648 126 664T63 680H44Z" />
<glyph unicode="X" glyph-name="X" horiz-adv-x="750" d="M52 0V32H83Q140 32 186 99L333 322L167 628Q138 680 77 680H62V712H376V680H355Q346 680 338 673T330 652Q330 640 338 624L426 462L504 581Q520 605 520 636Q520 654 509 667T476 680H446V712H700V680H670Q640
680 620 669T582 631L446 425L629 85Q644 58 666 45T710 32H730V0H398V32H431Q446 32 454 42T462 68Q462 83 450 104L353 284L257 139Q232 100 232 76Q232 58 241 45T268 32H312V0H52Z" />
<glyph unicode="Y" glyph-name="Y" horiz-adv-x="736" d="M46 680V712H360V680H332Q318 680 311 670T304 648Q304 632 310 620L442 333L534 562Q548 594 548 619T535 662T494 680H466V712H714V680H684Q650 680 627 659T593 607L458 278V56Q458 42 463 37T482 32H546V0H222V32H286Q300
32 305 37T310 56V269L140 636Q128 662 115 671T81 680H46Z" />
<glyph unicode="Z" glyph-name="Z" horiz-adv-x="652" d="M68 0V32L420 680H294Q256 680 212 641T143 542Q136 523 130 502T122 469T120 456H88L100 712H588V678L237 32H374Q402 32 428 45T475 79T511 121T536 162Q548 187 558 217T571 264L574 282H606L590 0H68Z" />
<glyph unicode="[" glyph-name="bracketleft" horiz-adv-x="380" d="M80 -180V712H310V684H216Q192 684 192 660V-128Q192 -152 216 -152H310V-180H80Z" />
<glyph unicode="\" glyph-name="backslash" horiz-adv-x="450" d="M50 730H118L400 -198H332L50 730Z" />
<glyph unicode="]" glyph-name="bracketright" horiz-adv-x="380" d="M70 -152H164Q188 -152 188 -128V660Q188 684 164 684H70V712H300V-180H70V-152Z" />
<glyph unicode="^" glyph-name="asciicircum" horiz-adv-x="580" d="M54 372L280 730H300L526 372H448L290 622L132 372H54Z" />
<glyph unicode="_" glyph-name="underscore" horiz-adv-x="520" d="M0 -104H520V-168H0V-104Z" />
<glyph unicode="`" glyph-name="grave" horiz-adv-x="440" d="M84 672Q84 690 96 701T126 712Q154 712 175 680L264 542L244 524L112 624Q84 646 84 672Z" />
<glyph unicode="a" glyph-name="a" horiz-adv-x="508" d="M168 115Q168 66 186 47T227 28Q266 28 288 72V270L232 250Q168 227 168 115ZM46 106Q46 134 57 158T84 199T124 230T168 253T214 271L288 297V365Q288 416 267 439T213 462Q186 462 165 450T144 415Q144
397 160 386Q174 377 181 368T188 341Q188 316 171 303T132 290Q106 290 88 307T69 358Q69 396 93 426T153 471T224 486Q250 486 274 481T322 464T364 434T393 388T404 325V72Q404 36 424 36Q442 36 451 66T460 135H488Q488 62 466 28Q455 10 435 -1T389 -12Q348
-12 327 1T292 42H290Q250 -12 178 -12Q158 -12 140 -9T105 2T75 24T54 58T46 106Z" />
<glyph unicode="b" glyph-name="b" horiz-adv-x="528" d="M12 688V712H200V417L206 415Q222 448 247 467T304 486Q356 486 397 450T459 357T480 237T458 117T394 24T300 -12Q264 -12 240 6T196 53Q184 72 176 79T157 86Q140 86 128 58L100 0H84V672Q84 681 81
684T68 688H12ZM200 234Q200 176 212 126T243 48T286 20Q352 20 352 237T286 454Q273 454 259 441T231 403T209 334T200 234Z" />
<glyph unicode="c" glyph-name="c" horiz-adv-x="468" d="M48 237Q48 306 74 362T149 452T259 486Q295 486 324 474T369 442T395 399T404 351Q404 315 382 289T329 262Q306 262 291 275T276 312Q276 340 308 365Q332 385 332 406T317 444T267 462Q176 462 176
237Q176 201 176 184T179 142T187 99Q196 62 222 40T281 18Q306 18 327 31T362 65T385 111T396 162H422Q420 138 414 115T395 69T365 28T321 -1T261 -12Q167 -12 108 60T48 237Z" />
<glyph unicode="d" glyph-name="d" horiz-adv-x="538" d="M176 454T176 237T242 20Q265 20 284 48T316 126T328 234Q328 290 319 334T297 403T270 441T242 454Q176 454 176 237ZM48 174T48 237T69 357T131 450T224 486Q256 486 281 467T322 415L328 417V672Q328
681 325 684T312 688H256V712H444V40Q444 31 447 28T460 24H516V0H328V58H322Q308 30 284 9T228 -12Q176 -12 134 24T70 117Z" />
<glyph unicode="e" glyph-name="e" horiz-adv-x="472" d="M48 237Q48 344 107 415T250 486Q311 486 354 443T413 328Q420 296 420 228H176Q176 196 176 179T179 140T187 99Q196 62 222 40T281 18Q306 18 327 31T362 65T385 111T396 162H422Q420 138 414 115T395
69T365 28T321 -1T261 -12Q167 -12 108 60T48 237ZM176 256H304Q304 362 291 412T240 462T190 412T176 256Z" />
<glyph unicode="f" glyph-name="f" horiz-adv-x="350" d="M30 0V24H86Q95 24 98 27T102 40V446H30V474H102V522Q102 570 119 609T163 671T222 707T285 720Q340 720 373 687T406 603Q406 572 385 551T332 529Q309 529 291 543T273 584Q273 613 301 638Q318 654
318 670Q318 684 307 690T281 696Q256 696 237 666T218 564V474H290V446H218V40Q218 31 221 28T234 24H290V0H30Z" />
<glyph unicode="g" glyph-name="g" horiz-adv-x="554" d="M42 -114Q42 -80 67 -53T136 -16V-13Q106 -10 82 12T58 69Q58 164 170 186V190Q152 198 137 209T106 237T81 278T72 330Q72 376 98 412T165 467T254 486Q336 486 393 434H396Q427 486 470 486Q502 486
522 467T542 420Q542 390 526 368T486 346Q470 346 458 355T446 381T462 417Q478 433 478 445Q478 461 457 461Q430 461 406 419Q438 384 438 322Q438 266 386 220T252 173Q224 173 204 172T162 165T129 149T117 120Q117 85 166 85H324Q358 85 387 77T439 54T475
11T489 -51Q489 -128 428 -183T264 -238Q204 -238 155 -224T74 -181T42 -114ZM194 399T194 330T208 230T256 198Q288 198 302 229T316 330T302 431T256 462Q222 462 208 431ZM78 -115Q78 -145 104 -166T168 -197T249 -206T330 -195T395 -159T422 -98Q422 -78 410
-64T376 -42T329 -31T273 -27Q240 -27 211 -30T149 -42T97 -69T78 -115Z" />
<glyph unicode="h" glyph-name="h" horiz-adv-x="560" d="M26 0V24H82Q91 24 94 27T98 40V672Q98 681 95 684T82 688H26V712H214V385L219 384Q239 430 270 458T343 486Q389 486 420 464Q445 446 459 414T474 348V40Q474 31 477 28T490 24H528V0H310V24H342Q351
24 354 27T358 40V377Q358 454 312 454Q292 454 269 428T230 354T214 254V40Q214 31 217 28T230 24H262V0H26Z" />
<glyph unicode="i" glyph-name="i" horiz-adv-x="296" d="M40 0V24H78Q87 24 90 27T94 40V434Q94 443 91 446T78 450H40V474H210V40Q210 31 213 28T226 24H264V0H40ZM334 618T334 650T355 703T408 724T461 703T482 650T461 597T408 576T355 597Z" />
<glyph unicode="j" glyph-name="j" horiz-adv-x="320" d="M-52 -126Q-52 -92 -30 -70T22 -47Q46 -47 63 -61T81 -100Q81 -131 53 -156Q36 -172 36 -188Q36 -202 47 -208T73 -214T97 -204T113 -164T120 -82V434Q120 443 117 446T104 450H48V474H236V-40Q236 -134
190 -186T77 -238Q20 -238 -16 -207T-52 -126ZM104 618T104 650T125 703T178 724T231 703T252 650T231 597T178 576T125 597Z" />
<glyph unicode="k" glyph-name="k" horiz-adv-x="560" d="M26 0V24H82Q91 24 94 27T98 40V672Q98 682 95 685T82 688H26V712H214V213L344 376Q364 400 364 421Q364 434 356 441T336 449H306V474H497V449H474Q450 449 431 434T385 384L326 310L482 57Q492 40 500
32T519 24H540V0H309V24H327Q336 24 344 29T352 46Q352 70 338 92L257 224L214 171V40Q214 31 218 28T232 24H268V0H26Z" />
<glyph unicode="l" glyph-name="l" horiz-adv-x="308" d="M26 0V24H82Q91 24 94 27T98 40V672Q98 681 95 684T82 688H26V712H214V40Q214 31 217 28T230 24H286V0H26Z" />
<glyph unicode="m" glyph-name="m" horiz-adv-x="800" d="M40 0V24H78Q87 24 90 27T94 40V434Q94 443 91 446T78 450H40V474H210V375L215 374Q260 486 340 486Q366 486 387 479T420 461T441 434T453 406T460 376H465Q484 426 515 456T583 486Q629 486 660 464Q685
446 699 414T714 348V40Q714 31 717 28T730 24H768V0H550V24H582Q591 24 594 27T598 40V377Q598 454 552 454Q520 454 491 394T462 254V40Q462 31 465 28T478 24H510V0H298V24H330Q339 24 342 27T346 40V395Q346 410 345 418T341 436T329 450T308 454Q287 454 265
427T226 353T210 254V40Q210 31 213 28T226 24H258V0H40Z" />
<glyph unicode="n" glyph-name="n" horiz-adv-x="556" d="M40 0V24H78Q87 24 90 27T94 40V434Q94 443 91 446T78 450H40V474H210V385L215 384Q235 430 266 458T339 486Q385 486 416 464Q441 446 455 414T470 348V40Q470 31 473 28T486 24H524V0H306V24H338Q347
24 350 27T354 40V377Q354 454 308 454Q288 454 265 428T226 354T210 254V40Q210 31 213 28T226 24H258V0H40Z" />
<glyph unicode="o" glyph-name="o" horiz-adv-x="504" d="M176 356T176 237T192 65T252 12T312 65T328 237T312 409T252 462T192 409ZM48 184T48 237T65 336T110 415T175 467T252 486T329 467T394 416T439 337T456 237T439 138T394 59T329 7T252 -12T175 7T110
58T65 137Z" />
<glyph unicode="p" glyph-name="p" horiz-adv-x="544" d="M216 240Q216 184 225 140T247 71T274 33T302 20Q368 20 368 237T302 454Q279 454 260 426T228 348T216 240ZM28 -204H84Q93 -204 96 -201T100 -188V434Q100 443 97 446T84 450H28V474H216V416H222Q236
444 260 465T316 486Q368 486 410 450T474 357T496 237T475 117T413 24T320 -12Q288 -12 263 7T222 59L216 57V-188Q216 -197 219 -200T232 -204H288V-228H28V-204Z" />
<glyph unicode="q" glyph-name="q" horiz-adv-x="524" d="M48 174T48 237T70 357T134 450T228 486Q264 486 288 468T332 421Q344 402 352 395T371 388Q388 388 400 416L428 474H444V-188Q444 -197 447 -200T460 -204H498V-228H256V-204H312Q321 -204 324 -201T328
-188V57L322 59Q306 26 281 7T224 -12Q172 -12 131 24T69 117ZM176 454T176 237T242 20Q255 20 269 33T297 71T319 140T328 240Q328 298 316 348T285 426T242 454Q176 454 176 237Z" />
<glyph unicode="r" glyph-name="r" horiz-adv-x="434" d="M40 0V24H78Q87 24 90 27T94 40V434Q94 443 91 446T78 450H40V474H210V375L215 374Q230 420 260 453T326 486T385 460T408 394Q408 358 387 331T335 304Q308 304 289 320T270 361T294 413Q308 429 308
436Q308 446 297 446Q276 446 256 418T223 342T210 241V40Q210 31 213 28T226 24H258V0H40Z" />
<glyph unicode="s" glyph-name="s" horiz-adv-x="430" d="M58 -12V186H80L125 107Q179 12 261 12Q298 12 316 30T334 72Q334 101 310 121T209 178Q186 189 171 197T133 223T95 256T69 297T58 350Q58 412 97 449T192 486Q238 486 292 452Q310 440 322 440T338 456L344
476H362V316H340L321 354Q294 408 259 435T188 462Q161 462 144 449T126 407Q126 348 232 298Q328 252 363 217T398 122Q398 60 359 24T260 -12Q210 -12 156 20Q132 36 120 36Q107 36 97 28T83 9L76 -12H58Z" />
<glyph unicode="t" glyph-name="t" horiz-adv-x="364" d="M20 446V474Q79 482 113 523T148 630V666H196V474H298V446H196V105Q196 90 197 79T203 56T218 38T242 32Q312 32 312 218H340Q340 89 309 39Q277 -12 212 -12Q149 -12 115 21T80 112V446H20Z" />
<glyph unicode="u" glyph-name="u" horiz-adv-x="550" d="M24 450V474H204V97Q204 20 250 20Q270 20 293 46T332 120T348 220V434Q348 443 345 446T332 450H284V474H464V40Q464 31 467 28T480 24H518V0H348V89L343 90Q323 44 292 16T219 -12Q173 -12 142 10Q117
28 103 60T88 126V434Q88 443 85 446T72 450H24Z" />
<glyph unicode="v" glyph-name="v" horiz-adv-x="530" d="M18 450V474H263V450H234Q225 450 218 443T210 424Q210 414 216 396L305 149L384 368Q391 390 391 412Q391 426 381 438T356 450H330V474H500V450H478Q444 450 422 388L278 -12H246L99 392Q88 424 75 437T35
450H18Z" />
<glyph unicode="w" glyph-name="w" horiz-adv-x="776" d="M18 450V474H249V450H230Q222 450 216 443T210 424Q210 414 216 396L306 145L379 349L364 392Q353 423 341 436T307 450H294V474H527V450H498Q489 450 482 443T474 424Q474 414 480 396L560 158L636 369Q643
392 643 414Q643 428 633 439T608 450H582V474H752V450H730Q696 450 674 388L530 -12H498L393 307L278 -12H246L100 392Q89 424 76 437T35 450H18Z" />
<glyph unicode="x" glyph-name="x" horiz-adv-x="520" d="M24 0V24H62Q91 24 132 84L216 204L89 414Q82 426 77 432T64 444T46 450H24V474H253V450H239Q232 450 226 445T220 428T228 404L287 306L348 395Q360 413 360 429Q360 439 352 444T333 450H293V474H470V450H443Q433
450 422 441T403 422T382 393L303 279L433 64Q457 24 484 24H500V0H273V24H288Q295 24 299 30T303 45Q303 60 293 75L232 177L178 99Q166 82 166 56Q166 42 173 33T191 24H228V0H24Z" />
<glyph unicode="y" glyph-name="y" horiz-adv-x="524" d="M12 450V474H257V450H228Q219 450 212 443T204 424Q204 413 211 396L314 149L379 368Q386 396 386 412Q386 427 378 438T355 450H329V474H494V450H472Q454 450 438 434T412 388L260 -117Q224 -238 151
-238Q110 -238 85 -213T60 -147Q60 -114 81 -89T134 -64Q158 -64 173 -78T189 -114Q189 -139 170 -156Q156 -168 156 -182Q156 -191 162 -198T179 -206Q191 -206 201 -192T217 -165T229 -132L262 -22L89 392Q75 424 64 437T27 450H12Z" />
<glyph unicode="z" glyph-name="z" horiz-adv-x="460" d="M32 0V26L282 450H214Q154 450 120 398Q107 378 98 353T86 313L84 298H60L66 474H414V454L160 24H246Q282 24 315 51T366 116Q375 134 380 157T387 194L388 208H412L406 0H32Z" />
<glyph unicode="{" glyph-name="braceleft" horiz-adv-x="420" d="M42 253V279Q66 279 82 281T112 292T133 317T140 360V562Q140 600 155 629T200 677T265 709T346 730L354 702Q298 690 275 671T252 604V410Q252 345 221 312T137 267V265Q190 253 221 220T252
122V-72Q252 -120 275 -139T354 -170L346 -198Q300 -189 265 -177T201 -146T156 -97T140 -30V172Q140 198 133 215T112 240T82 250T42 253Z" />
<glyph unicode="|" glyph-name="bar" horiz-adv-x="284" d="M108 -198V730H176V-198H108Z" />
<glyph unicode="}" glyph-name="braceright" horiz-adv-x="420" d="M66 -170Q122 -158 145 -139T168 -72V122Q168 187 199 220T283 265V267Q230 279 199 312T168 410V604Q168 652 145 671T66 702L74 730Q120 721 155 709T219 678T264 629T280 562V360Q280 334
287 317T308 292T338 282T378 279V253Q354 253 338 251T308 240T287 215T280 172V-30Q280 -68 265 -97T220 -145T155 -177T74 -198L66 -170Z" />
<glyph unicode="~" glyph-name="asciitilde" horiz-adv-x="660" d="M48 249Q48 294 79 328T164 362Q194 362 232 352T297 331T370 299Q429 272 469 258T538 244Q554 244 566 255T578 286Q578 324 536 346L550 367Q581 353 597 330T614 277Q614 232 583 198T498
164Q468 164 430 174T365 195T292 227Q233 254 193 268T124 282Q108 282 96 271T84 240Q84 202 126 180L112 159Q81 173 65 196T48 249Z" />
<glyph unicode="&#xa0;" glyph-name="nbspace" horiz-adv-x="280" />
<glyph unicode="&#xa1;" glyph-name="exclamdown" horiz-adv-x="280" d="M222 -140Q222 -186 199 -212T140 -238T81 -212T58 -140Q58 -87 85 15Q107 100 112 142L128 287H152L168 142Q171 108 195 15Q222 -87 222 -140ZM218 460T218 426T196 370T140 348T84 370T62
426T84 482T140 504T196 482Z" />
<glyph unicode="&#xa2;" glyph-name="cent" horiz-adv-x="580" d="M102 138T102 237T155 406T294 485V594H334V485Q394 478 426 439T458 351Q458 324 442 302T398 280Q376 280 363 293T350 329Q350 350 373 375Q390 394 390 406Q390 424 376 441T334 461V18Q360
18 381 31T416 65T439 111T450 162H476Q473 133 465 107T440 54T397 10T334 -11V-120H294V-11Q208 -2 155 68ZM230 237Q230 201 230 184T233 142T241 99Q254 48 294 28V456Q230 424 230 237Z" />
<glyph unicode="&#xa3;" glyph-name="sterling" horiz-adv-x="720" d="M64 65Q64 101 94 125T156 150T217 142T290 117Q296 140 296 165Q296 224 271 299Q256 340 248 380Q226 382 215 382Q197 382 184 379T162 372T139 360L123 390Q155 418 205 418Q217 418 241
416Q236 451 236 484Q236 560 270 616T360 700T482 728Q522 728 556 715T611 681T643 636T654 589Q654 556 631 530T577 504Q555 504 536 519T517 557Q517 571 522 582T533 599T548 612Q560 623 564 632T568 653Q568 670 546 686T482 702Q456 702 436 688T405 649T389
596T384 536Q384 487 394 389Q426 384 449 384Q474 384 490 389T525 406L541 376Q513 348 459 348Q432 348 398 353Q402 305 402 274Q402 182 344 100Q418 80 492 80Q540 80 582 108T651 181L676 170Q666 144 652 120T617 70T572 25T515 -6T445 -18Q385 -18 293
42Q229 -12 162 -12Q120 -12 92 6T64 65ZM92 59Q92 42 104 31T131 16T162 12Q189 12 215 25T262 63Q226 86 200 98T150 110Q124 110 108 96T92 59Z" />
<glyph unicode="&#xa5;" glyph-name="yen" horiz-adv-x="580" d="M18 680V712H282V680H258Q250 680 245 673T239 656T246 632L346 402L430 582Q442 608 442 638Q442 652 434 666T410 680H385V712H562V680H546Q531 680 517 667T495 640T477 605L360 358H500V326H360V260H500V228H360V56Q360
32 384 32H456V0H116V32H188Q212 32 212 56V228H72V260H212V326H72V358H203L80 641Q62 680 36 680H18Z" />
<glyph unicode="&#xa7;" glyph-name="section" horiz-adv-x="640" d="M50 274Q50 320 72 358T127 419Q92 468 92 543Q92 622 149 673T291 724Q371 724 416 684T462 590Q462 547 437 521T374 494Q346 494 329 510T311 552Q311 588 348 609Q382 630 382 650Q382
665 366 676T330 691T289 696Q240 696 206 667T172 586Q172 544 191 519T247 476L398 405Q504 355 504 252Q504 206 482 168T427 107Q462 58 462 -17Q462 -96 405 -147T263 -198Q183 -198 138 -158T92 -64Q92 -21 117 5T180 32Q208 32 225 16T243 -26Q243 -62 206
-83Q172 -104 172 -124Q172 -139 188 -150T224 -165T265 -170Q314 -170 348 -141T382 -60Q382 -18 363 7T307 50L156 121Q50 171 50 274ZM106 337Q106 288 142 270L342 174Q386 153 413 124Q432 140 440 154T448 189Q448 238 412 256L212 352Q168 373 141 402Q122
386 114 372T106 337Z" />
<glyph unicode="&#xa8;" glyph-name="dieresis" horiz-adv-x="440" d="M250 591T250 618T268 663T314 682T359 664T378 618T360 573T314 554T269 572ZM62 591T62 618T80 663T126 682T171 664T190 618T172 573T126 554T81 572Z" />
<glyph unicode="&#xa9;" glyph-name="copyright" horiz-adv-x="820" d="M88 447T88 356T130 188T246 64T410 18T574 64T690 187T732 356T690 524T574 648T410 694T246 648T130 525ZM48 280T48 356T76 501T152 620T267 700T410 730T553 700T668 620T744 501T772
356T744 211T668 92T553 12T410 -18T267 12T152 92T76 211ZM220 351Q220 417 241 471T304 560T401 594Q448 594 489 564Q507 552 513 552Q523 552 528 565L537 588H562V390H538Q524 472 492 519T415 566Q386 566 367 538T348 447V256Q348 194 370 166T422 138Q492
138 526 205Q542 238 550 300H576Q572 238 549 192Q529 154 494 132T411 110T327 130T267 185T232 262T220 351Z" />
<glyph unicode="&#xaa;" glyph-name="ordfeminine" horiz-adv-x="380" d="M52 354V386H328V354H52ZM132 490Q132 462 141 451T162 440Q184 440 198 463V581L170 571Q132 557 132 490ZM44 483Q44 501 52 516T70 540T98 559T127 573T159 585L198 599V639Q198 694
156 694Q139 694 127 687T114 667Q114 656 125 650Q143 640 143 624Q143 610 132 602T104 594Q86 594 73 605T60 635Q60 670 92 691T163 712Q186 712 206 707T243 693T271 666T282 625V467Q282 446 295 446Q306 446 311 463T316 504H336Q336 457 321 435Q305 410
268 410Q242 410 227 419T201 447H200Q190 431 172 421T130 410Q114 410 100 413T73 424T52 447T44 483Z" />
<glyph unicode="&#xab;" glyph-name="guillemotleft" horiz-adv-x="480" d="M265 237Q265 298 290 342T360 428L376 412Q358 388 349 357T339 302T337 237T338 173T349 118T376 62L360 46Q346 57 332 74T302 115T276 172T265 237ZM108 103T108 237T232 446L248
430Q216 394 206 358T196 237T206 116T248 44L232 28Q108 103 108 237Z" />
<glyph unicode="&#xac;" glyph-name="logicalnot" horiz-adv-x="580" d="M40 345V409H540V137H472V345H40Z" />
<glyph unicode="&#xae;" glyph-name="registered" horiz-adv-x="820" d="M88 447T88 356T130 188T246 64T410 18T574 64T690 187T732 356T690 524T574 648T410 694T246 648T130 525ZM48 280T48 356T76 501T152 620T267 700T410 730T553 700T668 620T744 501T772
356T744 211T668 92T553 12T410 -18T267 12T152 92T76 211ZM374 385H414Q446 385 459 409T472 477T459 541T414 562H392Q374 562 374 544V385ZM204 130V154H244Q262 154 262 172V544Q262 562 244 562H204V586H428Q502 586 547 556T592 473Q592 428 555 402T456
370V365Q514 356 545 330T576 249V180Q576 154 592 154T615 181T622 246H646Q646 216 642 193T629 151T603 122T562 112Q518 112 491 136T464 208V287Q464 318 450 339T407 360H374V172Q374 154 392 154H440V130H204Z" />
<glyph unicode="&#xaf;" glyph-name="overscore" horiz-adv-x="440" d="M90 584V648H350V584H90Z" />
<glyph unicode="&#xb0;" glyph-name="degree" horiz-adv-x="580" d="M130 502T130 568T177 681T290 728T403 681T450 568T403 455T290 408T177 455ZM186 613T186 568T215 494T290 464T364 493T394 568T365 642T290 672T216 643Z" />
<glyph unicode="&#xb1;" glyph-name="plusminus" horiz-adv-x="940" d="M48 344V408H436V688H504V408H892V344H504V64H436V344H48ZM48 0H884V-64H48V0Z" />
<glyph unicode="&#xb4;" glyph-name="acute" horiz-adv-x="440" d="M176 542L265 680Q286 712 314 712Q332 712 344 701T356 672Q356 646 328 624L196 524L176 542Z" />
<glyph unicode="&#xb5;" glyph-name="mu1" horiz-adv-x="606" d="M60 354Q60 404 81 444T135 484Q156 484 170 468T190 431T196 389Q196 333 174 259Q150 177 138 107Q158 49 239 49Q264 49 288 62T326 94T349 130T358 158Q326 251 326 362Q326 389 331 415T352
463T390 484Q422 484 442 447T462 355Q462 302 448 234T410 115Q434 91 460 91Q496 91 518 116T554 192L572 188Q572 152 569 121T557 57T530 5T485 -15Q470 -15 457 -10T435 3T417 24T404 46L392 72L387 71Q370 40 337 15T265 -10Q192 -10 134 53L131 52Q128 31
128 16Q128 -4 134 -26T147 -62L166 -100Q180 -126 187 -141T200 -176T207 -211Q207 -239 192 -260T146 -282Q110 -282 92 -253T74 -185Q74 -108 94 -21Q105 33 109 92Q60 234 60 354Z" />
<glyph unicode="&#xb6;" glyph-name="paragraph" horiz-adv-x="600" d="M56 510Q56 597 114 654T258 712H544V678H474V-156H406V678H326V-156H258V321Q170 321 113 373T56 510Z" />
<glyph unicode="&#xb7;" glyph-name="middot" horiz-adv-x="280" d="M62 296T62 330T84 386T140 408T196 386T218 330T196 274T140 252T84 274Z" />
<glyph unicode="&#xb8;" glyph-name="cedilla" horiz-adv-x="440" d="M114 -178L126 -158Q154 -180 185 -180Q236 -180 236 -130Q236 -100 222 -87T172 -67L196 0H227L209 -52Q226 -56 242 -61T276 -77T305 -103T316 -139Q316 -172 288 -192T202 -212Q178 -212
153 -202T114 -178Z" />
<glyph unicode="&#xba;" glyph-name="ordmasculine" horiz-adv-x="380" d="M56 354V386H324V354H56ZM148 629T148 561T156 461T190 428Q215 428 223 461T232 561T224 661T190 694Q164 694 156 662ZM56 498T56 561T95 668T190 712T285 668T324 561T285 454T190
410T95 454Z" />
<glyph unicode="&#xbb;" glyph-name="guillemotright" horiz-adv-x="480" d="M104 62Q122 86 131 117T141 172T143 237T142 301T131 356T104 412L120 428Q165 386 190 342T215 237Q215 204 205 172T178 116T148 74T120 46L104 62ZM232 44Q264 80 274 116T284 237T274
358T232 430L248 446Q372 371 372 237T248 28L232 44Z" />
<glyph unicode="&#xbf;" glyph-name="questiondown" horiz-adv-x="470" d="M138 394T138 428T160 484T216 506T272 484T294 428T272 372T216 350T160 372ZM72 -94Q72 -13 195 100Q216 120 228 132T253 162T273 199T280 238Q280 263 262 275T219 288T179 269T163
222Q163 210 168 196L144 186Q135 206 135 223Q135 264 159 291T219 318Q258 318 286 297T314 237Q314 178 262 97Q245 70 236 53T215 10T199 -44T194 -107Q194 -146 213 -172T266 -198Q306 -198 332 -166T358 -90Q358 -54 350 -32T320 18L343 35Q368 4 380 -24T392
-92Q392 -151 350 -194T235 -238Q164 -238 118 -197T72 -94Z" />
<glyph unicode="&#xc0;" glyph-name="Agrave" horiz-adv-x="754" d="M247 908Q247 926 259 937T289 948Q317 948 338 916L427 778L407 760L275 860Q247 882 247 908ZM245 226H430L339 501L245 226ZM44 0V32H78Q108 32 131 56T166 113L377 730H419L633 83Q650 32
692 32H732V0H381V32H453Q464 32 472 41T480 64Q480 75 474 93L442 189H232L211 128Q200 100 200 77Q200 60 214 46T252 32H299V0H44Z" />
<glyph unicode="&#xc1;" glyph-name="Aacute" horiz-adv-x="754" d="M364 778L453 916Q474 948 502 948Q520 948 532 937T544 908Q544 882 516 860L384 760L364 778ZM245 226H430L339 501L245 226ZM44 0V32H78Q108 32 131 56T166 113L377 730H419L633 83Q650 32
692 32H732V0H381V32H453Q464 32 472 41T480 64Q480 75 474 93L442 189H232L211 128Q200 100 200 77Q200 60 214 46T252 32H299V0H44Z" />
<glyph unicode="&#xc2;" glyph-name="Acircumflex" horiz-adv-x="754" d="M228 786Q324 836 376 930H416Q465 836 564 786L552 762Q509 778 476 795T396 842Q349 812 316 795T240 762L228 786ZM245 226H430L339 501L245 226ZM44 0V32H78Q108 32 131 56T166 113L377
730H419L633 83Q650 32 692 32H732V0H381V32H453Q464 32 472 41T480 64Q480 75 474 93L442 189H232L211 128Q200 100 200 77Q200 60 214 46T252 32H299V0H44Z" />
<glyph unicode="&#xc3;" glyph-name="Atilde" horiz-adv-x="754" d="M248 800Q248 840 273 874T336 908Q358 908 375 903T418 887Q453 872 482 872Q516 872 522 912H544Q544 872 519 838T456 804Q440 804 425 807T401 814T374 825Q339 840 310 840Q276 840 270
800H248ZM245 226H430L339 501L245 226ZM44 0V32H78Q108 32 131 56T166 113L377 730H419L633 83Q650 32 692 32H732V0H381V32H453Q464 32 472 41T480 64Q480 75 474 93L442 189H232L211 128Q200 100 200 77Q200 60 214 46T252 32H299V0H44Z" />
<glyph unicode="&#xc4;" glyph-name="Adieresis" horiz-adv-x="754" d="M230 827T230 854T248 899T294 918T339 900T358 854T340 809T294 790T249 808ZM434 827T434 854T452 899T498 918T543 900T562 854T544 809T498 790T453 808ZM245 226H430L339 501L245 226ZM44
0V32H78Q108 32 131 56T166 113L377 730H419L633 83Q650 32 692 32H732V0H381V32H453Q464 32 472 41T480 64Q480 75 474 93L442 189H232L211 128Q200 100 200 77Q200 60 214 46T252 32H299V0H44Z" />
<glyph unicode="&#xc5;" glyph-name="Aring" horiz-adv-x="754" d="M329 874T329 850T348 812T396 798T444 812T463 850T444 888T396 902T348 888ZM285 808T285 850T315 919T396 946T476 919T507 850T477 781T396 754T316 781ZM245 226H430L339 501L245 226ZM44
0V32H78Q108 32 131 56T166 113L377 730H419L633 83Q650 32 692 32H732V0H381V32H453Q464 32 472 41T480 64Q480 75 474 93L442 189H232L211 128Q200 100 200 77Q200 60 214 46T252 32H299V0H44Z" />
<glyph unicode="&#xc6;" glyph-name="AE" horiz-adv-x="1004" d="M26 0V32H49Q86 32 119 57T171 120L412 591Q434 635 434 654Q434 665 426 672T405 680H376V712H944L950 480H918Q908 544 878 594Q829 680 758 680H648Q634 680 629 675T624 656V380H675Q702 380
725 402T762 456T775 518H807V205H775Q775 235 762 267T726 321T675 344H624V56Q624 42 629 37T648 32H757Q786 32 811 46T855 83T885 128T905 174Q911 190 916 216T924 259L926 276H958L952 0H381V32H451Q464 32 469 37T475 56V210H266L243 166Q232 146 223 121T214
83Q214 32 263 32H296V0H26ZM283 246H475V620L283 246Z" />
<glyph unicode="&#xc7;" glyph-name="Ccedilla" horiz-adv-x="660" d="M70 356Q70 432 89 499T143 618T232 700T350 730Q387 730 418 717T485 681Q508 666 519 666Q532 666 541 685L559 722H592V415H560Q538 544 481 621T350 698Q302 698 271 652T240 506V206Q240
154 251 116T279 56T317 24T360 14Q478 14 537 123Q566 176 576 275H612Q604 175 571 109Q540 49 487 16T360 -18H354L345 -48L371 -54Q414 -64 436 -87T459 -145Q459 -184 426 -211T333 -238Q299 -238 272 -223T227 -187L245 -166Q282 -202 319 -202Q346 -202
363 -186T381 -138Q381 -116 371 -103T334 -83L303 -76L324 -16Q262 -8 213 26T133 112T86 226T70 356Z" />
<glyph unicode="&#xc8;" glyph-name="Egrave" horiz-adv-x="690" d="M224 908Q224 926 236 937T266 948Q294 948 315 916L404 778L384 760L252 860Q224 882 224 908ZM62 0V32H132Q146 32 151 37T156 56V656Q156 670 151 675T132 680H62V712H624L630 480H598Q588
544 558 594Q509 680 438 680H328Q314 680 309 675T304 656V380H355Q382 380 405 402T442 456T455 518H487V205H455Q455 235 442 267T406 321T355 344H304V56Q304 42 309 37T328 32H437Q466 32 491 46T535 83T565 128T585 174Q591 190 596 216T604 259L606 276H638L632
0H62Z" />
<glyph unicode="&#xc9;" glyph-name="Eacute" horiz-adv-x="690" d="M340 778L429 916Q450 948 478 948Q496 948 508 937T520 908Q520 882 492 860L360 760L340 778ZM62 0V32H132Q146 32 151 37T156 56V656Q156 670 151 675T132 680H62V712H624L630 480H598Q588
544 558 594Q509 680 438 680H328Q314 680 309 675T304 656V380H355Q382 380 405 402T442 456T455 518H487V205H455Q455 235 442 267T406 321T355 344H304V56Q304 42 309 37T328 32H437Q466 32 491 46T535 83T565 128T585 174Q591 190 596 216T604 259L606 276H638L632
0H62Z" />
<glyph unicode="&#xca;" glyph-name="Ecircumflex" horiz-adv-x="690" d="M204 786Q300 836 352 930H392Q441 836 540 786L528 762Q485 778 452 795T372 842Q325 812 292 795T216 762L204 786ZM62 0V32H132Q146 32 151 37T156 56V656Q156 670 151 675T132 680H62V712H624L630
480H598Q588 544 558 594Q509 680 438 680H328Q314 680 309 675T304 656V380H355Q382 380 405 402T442 456T455 518H487V205H455Q455 235 442 267T406 321T355 344H304V56Q304 42 309 37T328 32H437Q466 32 491 46T535 83T565 128T585 174Q591 190 596 216T604
259L606 276H638L632 0H62Z" />
<glyph unicode="&#xcb;" glyph-name="Edieresis" horiz-adv-x="690" d="M206 827T206 854T224 899T270 918T315 900T334 854T316 809T270 790T225 808ZM410 827T410 854T428 899T474 918T519 900T538 854T520 809T474 790T429 808ZM62 0V32H132Q146 32 151 37T156
56V656Q156 670 151 675T132 680H62V712H624L630 480H598Q588 544 558 594Q509 680 438 680H328Q314 680 309 675T304 656V380H355Q382 380 405 402T442 456T455 518H487V205H455Q455 235 442 267T406 321T355 344H304V56Q304 42 309 37T328 32H437Q466 32 491
46T535 83T565 128T585 174Q591 190 596 216T604 259L606 276H638L632 0H62Z" />
<glyph unicode="&#xcc;" glyph-name="Igrave" horiz-adv-x="440" d="M82 908Q82 926 94 937T124 948Q152 948 173 916L262 778L242 760L110 860Q82 882 82 908ZM62 0V32H132Q146 32 151 37T156 56V656Q156 670 151 675T132 680H62V712H398V680H328Q314 680 309
675T304 656V56Q304 42 309 37T328 32H398V0H62Z" />
<glyph unicode="&#xcd;" glyph-name="Iacute" horiz-adv-x="440" d="M198 778L287 916Q308 948 336 948Q354 948 366 937T378 908Q378 882 350 860L218 760L198 778ZM62 0V32H132Q146 32 151 37T156 56V656Q156 670 151 675T132 680H62V712H398V680H328Q314 680
309 675T304 656V56Q304 42 309 37T328 32H398V0H62Z" />
<glyph unicode="&#xce;" glyph-name="Icircumflex" horiz-adv-x="440" d="M62 786Q158 836 210 930H250Q299 836 398 786L386 762Q343 778 310 795T230 842Q183 812 150 795T74 762L62 786ZM62 0V32H132Q146 32 151 37T156 56V656Q156 670 151 675T132 680H62V712H398V680H328Q314
680 309 675T304 656V56Q304 42 309 37T328 32H398V0H62Z" />
<glyph unicode="&#xcf;" glyph-name="Idieresis" horiz-adv-x="440" d="M64 827T64 854T82 899T128 918T173 900T192 854T174 809T128 790T83 808ZM268 827T268 854T286 899T332 918T377 900T396 854T378 809T332 790T287 808ZM62 0V32H132Q146 32 151 37T156
56V656Q156 670 151 675T132 680H62V712H398V680H328Q314 680 309 675T304 656V56Q304 42 309 37T328 32H398V0H62Z" />
<glyph unicode="&#xd1;" glyph-name="Ntilde" horiz-adv-x="764" d="M270 800Q270 840 295 874T358 908Q380 908 397 903T440 887Q475 872 504 872Q538 872 544 912H566Q566 872 541 838T478 804Q462 804 447 807T423 814T396 825Q361 840 332 840Q298 840 292
800H270ZM48 0V32Q102 32 138 61T174 136V563Q174 574 172 579T163 594L123 654Q113 668 102 674T66 680H48V712H270L590 255V576Q590 622 554 651T464 680V712H756V680Q702 680 666 651T630 576V-18H592L218 517H214V136Q214 90 250 61T340 32V0H48Z" />
<glyph unicode="&#xd2;" glyph-name="Ograve" horiz-adv-x="712" d="M218 908Q218 926 230 937T260 948Q288 948 309 916L398 778L378 760L246 860Q218 882 218 908ZM70 286T70 356T94 495T158 615T253 698T366 730T479 698T574 615T638 495T662 356T638 217T574
97T479 14T366 -18T253 14T158 97T94 217ZM240 206Q240 103 273 59T366 14T459 58T492 206V506Q492 609 459 653T366 698T273 654T240 506V206Z" />
<glyph unicode="&#xd3;" glyph-name="Oacute" horiz-adv-x="712" d="M334 778L423 916Q444 948 472 948Q490 948 502 937T514 908Q514 882 486 860L354 760L334 778ZM70 286T70 356T94 495T158 615T253 698T366 730T479 698T574 615T638 495T662 356T638 217T574
97T479 14T366 -18T253 14T158 97T94 217ZM240 206Q240 103 273 59T366 14T459 58T492 206V506Q492 609 459 653T366 698T273 654T240 506V206Z" />
<glyph unicode="&#xd4;" glyph-name="Ocircumflex" horiz-adv-x="712" d="M198 786Q294 836 346 930H386Q435 836 534 786L522 762Q479 778 446 795T366 842Q319 812 286 795T210 762L198 786ZM70 286T70 356T94 495T158 615T253 698T366 730T479 698T574 615T638
495T662 356T638 217T574 97T479 14T366 -18T253 14T158 97T94 217ZM240 206Q240 103 273 59T366 14T459 58T492 206V506Q492 609 459 653T366 698T273 654T240 506V206Z" />
<glyph unicode="&#xd5;" glyph-name="Otilde" horiz-adv-x="712" d="M218 800Q218 840 243 874T306 908Q328 908 345 903T388 887Q423 872 452 872Q486 872 492 912H514Q514 872 489 838T426 804Q410 804 395 807T371 814T344 825Q309 840 280 840Q246 840 240
800H218ZM70 286T70 356T94 495T158 615T253 698T366 730T479 698T574 615T638 495T662 356T638 217T574 97T479 14T366 -18T253 14T158 97T94 217ZM240 206Q240 103 273 59T366 14T459 58T492 206V506Q492 609 459 653T366 698T273 654T240 506V206Z" />
<glyph unicode="&#xd6;" glyph-name="Odieresis" horiz-adv-x="712" d="M200 827T200 854T218 899T264 918T309 900T328 854T310 809T264 790T219 808ZM404 827T404 854T422 899T468 918T513 900T532 854T514 809T468 790T423 808ZM70 286T70 356T94 495T158 615T253
698T366 730T479 698T574 615T638 495T662 356T638 217T574 97T479 14T366 -18T253 14T158 97T94 217ZM240 206Q240 103 273 59T366 14T459 58T492 206V506Q492 609 459 653T366 698T273 654T240 506V206Z" />
<glyph unicode="&#xd8;" glyph-name="Oslash" horiz-adv-x="712" d="M70 6L150 109Q112 161 91 225T70 356Q70 426 94 495T158 615T253 698T366 730Q418 730 467 705T557 634L631 730L662 706L582 603Q620 551 641 487T662 356Q662 286 638 217T574 97T479 14T366
-18Q314 -18 265 7T175 78L101 -18L70 6ZM242 164Q248 84 280 49T366 14Q426 14 459 58T492 206V487L242 164ZM240 225L490 548Q484 628 452 663T366 698Q306 698 273 654T240 506V225Z" />
<glyph unicode="&#xd9;" glyph-name="Ugrave" horiz-adv-x="794" d="M282 908Q282 926 294 937T324 948Q352 948 373 916L462 778L442 760L310 860Q282 882 282 908ZM68 680V712H392V680H328Q314 680 309 675T304 656V198Q304 106 339 64T447 22Q521 22 569 73T618
198V590Q618 635 588 657T514 680V712H762V680Q718 680 688 658T658 590V208Q658 111 594 47T419 -18Q364 -18 319 -4T244 34T194 91T165 160T156 237V656Q156 670 151 675T132 680H68Z" />
<glyph unicode="&#xda;" glyph-name="Uacute" horiz-adv-x="794" d="M398 778L487 916Q508 948 536 948Q554 948 566 937T578 908Q578 882 550 860L418 760L398 778ZM68 680V712H392V680H328Q314 680 309 675T304 656V198Q304 106 339 64T447 22Q521 22 569 73T618
198V590Q618 635 588 657T514 680V712H762V680Q718 680 688 658T658 590V208Q658 111 594 47T419 -18Q364 -18 319 -4T244 34T194 91T165 160T156 237V656Q156 670 151 675T132 680H68Z" />
<glyph unicode="&#xdb;" glyph-name="Ucircumflex" horiz-adv-x="794" d="M262 786Q358 836 410 930H450Q499 836 598 786L586 762Q543 778 510 795T430 842Q383 812 350 795T274 762L262 786ZM68 680V712H392V680H328Q314 680 309 675T304 656V198Q304 106 339
64T447 22Q521 22 569 73T618 198V590Q618 635 588 657T514 680V712H762V680Q718 680 688 658T658 590V208Q658 111 594 47T419 -18Q364 -18 319 -4T244 34T194 91T165 160T156 237V656Q156 670 151 675T132 680H68Z" />
<glyph unicode="&#xdc;" glyph-name="Udieresis" horiz-adv-x="794" d="M264 827T264 854T282 899T328 918T373 900T392 854T374 809T328 790T283 808ZM468 827T468 854T486 899T532 918T577 900T596 854T578 809T532 790T487 808ZM68 680V712H392V680H328Q314
680 309 675T304 656V198Q304 106 339 64T447 22Q521 22 569 73T618 198V590Q618 635 588 657T514 680V712H762V680Q718 680 688 658T658 590V208Q658 111 594 47T419 -18Q364 -18 319 -4T244 34T194 91T165 160T156 237V656Q156 670 151 675T132 680H68Z" />
<glyph unicode="&#xdf;" glyph-name="germandbls" horiz-adv-x="556" d="M22 0V24H78Q87 24 90 27T94 40V456Q94 512 105 557T135 631T180 680T233 709T291 718Q368 718 410 677T452 576Q452 514 417 479T327 433V428Q363 418 393 402T451 360T493 293T508 200Q508
140 489 93T431 17T338 -12Q288 -12 255 15T222 84Q222 112 240 130T282 148Q304 148 316 134T328 102T311 67Q298 54 298 40Q298 12 335 12Q359 12 369 58T380 206Q380 259 376 295T362 360T333 401T286 415H251V444H286Q302 444 312 452T328 471T337 502T341
538T342 580Q342 634 329 664T282 694Q210 694 210 513V0H22Z" />
<glyph unicode="&#xe0;" glyph-name="agrave" horiz-adv-x="508" d="M168 115Q168 66 186 47T227 28Q266 28 288 72V270L232 250Q168 227 168 115ZM46 106Q46 134 57 158T84 199T124 230T168 253T214 271L288 297V365Q288 416 267 439T213 462Q186 462 165 450T144
415Q144 397 160 386Q174 377 181 368T188 341Q188 316 171 303T132 290Q106 290 88 307T69 358Q69 396 93 426T153 471T224 486Q250 486 274 481T322 464T364 434T393 388T404 325V72Q404 36 424 36Q442 36 451 66T460 135H488Q488 62 466 28Q455 10 435 -1T389
-12Q348 -12 327 1T292 42H290Q250 -12 178 -12Q158 -12 140 -9T105 2T75 24T54 58T46 106ZM96 672Q96 690 108 701T138 712Q166 712 187 680L276 542L256 524L124 624Q96 646 96 672Z" />
<glyph unicode="&#xe1;" glyph-name="aacute" horiz-adv-x="508" d="M168 115Q168 66 186 47T227 28Q266 28 288 72V270L232 250Q168 227 168 115ZM46 106Q46 134 57 158T84 199T124 230T168 253T214 271L288 297V365Q288 416 267 439T213 462Q186 462 165 450T144
415Q144 397 160 386Q174 377 181 368T188 341Q188 316 171 303T132 290Q106 290 88 307T69 358Q69 396 93 426T153 471T224 486Q250 486 274 481T322 464T364 434T393 388T404 325V72Q404 36 424 36Q442 36 451 66T460 135H488Q488 62 466 28Q455 10 435 -1T389
-12Q348 -12 327 1T292 42H290Q250 -12 178 -12Q158 -12 140 -9T105 2T75 24T54 58T46 106ZM188 542L277 680Q298 712 326 712Q344 712 356 701T368 672Q368 646 340 624L208 524L188 542Z" />
<glyph unicode="&#xe2;" glyph-name="acircumflex" horiz-adv-x="508" d="M168 115Q168 66 186 47T227 28Q266 28 288 72V270L232 250Q168 227 168 115ZM46 106Q46 134 57 158T84 199T124 230T168 253T214 271L288 297V365Q288 416 267 439T213 462Q186 462 165
450T144 415Q144 397 160 386Q174 377 181 368T188 341Q188 316 171 303T132 290Q106 290 88 307T69 358Q69 396 93 426T153 471T224 486Q250 486 274 481T322 464T364 434T393 388T404 325V72Q404 36 424 36Q442 36 451 66T460 135H488Q488 62 466 28Q455 10 435
-1T389 -12Q348 -12 327 1T292 42H290Q250 -12 178 -12Q158 -12 140 -9T105 2T75 24T54 58T46 106ZM82 548Q108 566 129 586T163 630T183 670T198 708H266Q274 686 281 670T301 631T335 587T382 548L366 524Q332 540 294 567T232 620Q208 594 170 567T98 524L82
548Z" />
<glyph unicode="&#xe3;" glyph-name="atilde" horiz-adv-x="508" d="M168 115Q168 66 186 47T227 28Q266 28 288 72V270L232 250Q168 227 168 115ZM46 106Q46 134 57 158T84 199T124 230T168 253T214 271L288 297V365Q288 416 267 439T213 462Q186 462 165 450T144
415Q144 397 160 386Q174 377 181 368T188 341Q188 316 171 303T132 290Q106 290 88 307T69 358Q69 396 93 426T153 471T224 486Q250 486 274 481T322 464T364 434T393 388T404 325V72Q404 36 424 36Q442 36 451 66T460 135H488Q488 62 466 28Q455 10 435 -1T389
-12Q348 -12 327 1T292 42H290Q250 -12 178 -12Q158 -12 140 -9T105 2T75 24T54 58T46 106ZM84 564Q84 604 109 638T172 672Q194 672 211 667T254 651Q289 636 318 636Q352 636 358 676H380Q380 636 355 602T292 568Q276 568 261 571T237 578T210 589Q175 604 146
604Q112 604 106 564H84Z" />
<glyph unicode="&#xe4;" glyph-name="adieresis" horiz-adv-x="508" d="M168 115Q168 66 186 47T227 28Q266 28 288 72V270L232 250Q168 227 168 115ZM46 106Q46 134 57 158T84 199T124 230T168 253T214 271L288 297V365Q288 416 267 439T213 462Q186 462 165
450T144 415Q144 397 160 386Q174 377 181 368T188 341Q188 316 171 303T132 290Q106 290 88 307T69 358Q69 396 93 426T153 471T224 486Q250 486 274 481T322 464T364 434T393 388T404 325V72Q404 36 424 36Q442 36 451 66T460 135H488Q488 62 466 28Q455 10 435
-1T389 -12Q348 -12 327 1T292 42H290Q250 -12 178 -12Q158 -12 140 -9T105 2T75 24T54 58T46 106ZM262 591T262 618T280 663T326 682T371 664T390 618T372 573T326 554T281 572ZM74 591T74 618T92 663T138 682T183 664T202 618T184 573T138 554T93 572Z" />
<glyph unicode="&#xe5;" glyph-name="aring" horiz-adv-x="508" d="M168 115Q168 66 186 47T227 28Q266 28 288 72V270L232 250Q168 227 168 115ZM46 106Q46 134 57 158T84 199T124 230T168 253T214 271L288 297V365Q288 416 267 439T213 462Q186 462 165 450T144
415Q144 397 160 386Q174 377 181 368T188 341Q188 316 171 303T132 290Q106 290 88 307T69 358Q69 396 93 426T153 471T224 486Q250 486 274 481T322 464T364 434T393 388T404 325V72Q404 36 424 36Q442 36 451 66T460 135H488Q488 62 466 28Q455 10 435 -1T389
-12Q348 -12 327 1T292 42H290Q250 -12 178 -12Q158 -12 140 -9T105 2T75 24T54 58T46 106ZM125 578T125 623T156 699T232 730T308 699T339 623T308 547T232 516T156 547ZM169 652T169 623T186 577T232 560T277 577T295 623T278 669T232 686T187 669Z" />
<glyph unicode="&#xe6;" glyph-name="ae" horiz-adv-x="700" d="M46 107Q46 136 58 160T86 201T127 232T171 254T214 271L288 297V365Q288 416 266 439T211 462Q184 462 164 450T144 415Q144 397 160 386Q174 377 181 368T188 341Q188 316 171 303T132 290Q106
290 88 307T69 358Q69 396 91 426T148 471T218 486Q298 486 350 442Q400 486 478 486Q539 486 582 443T641 328Q648 296 648 228H404Q404 196 404 179T407 140T415 99Q424 62 450 40T509 18Q534 18 555 31T590 65T613 111T624 162H650Q648 138 642 115T623 69T593
28T549 -1T489 -12Q440 -12 397 8T328 66Q301 29 265 9T174 -12Q156 -12 139 -9T104 3T75 25T54 59T46 107ZM168 115Q168 89 174 71T189 44T207 32T224 28Q263 28 288 66V269L232 250Q168 228 168 115ZM404 256H532Q532 362 519 412T468 462T418 412T404 256Z"
/>
<glyph unicode="&#xe7;" glyph-name="ccedilla" horiz-adv-x="468" d="M48 237Q48 306 74 362T149 452T259 486Q295 486 324 474T369 442T395 399T404 351Q404 315 382 289T329 262Q306 262 291 275T276 312Q276 340 308 365Q332 385 332 406T317 444T267 462Q176
462 176 237Q176 201 176 184T179 142T187 99Q196 62 222 40T281 18Q306 18 327 31T362 65T385 111T396 162H422Q420 138 414 115T395 69T365 28T321 -1T261 -12H251L237 -52Q254 -56 270 -61T304 -77T333 -103T344 -139Q344 -172 316 -192T230 -212Q206 -212 181
-202T142 -178L154 -158Q182 -180 213 -180Q264 -180 264 -130Q264 -100 250 -87T200 -67L221 -8Q143 7 96 75T48 237Z" />
<glyph unicode="&#xe8;" glyph-name="egrave" horiz-adv-x="472" d="M48 237Q48 344 107 415T250 486Q311 486 354 443T413 328Q420 296 420 228H176Q176 196 176 179T179 140T187 99Q196 62 222 40T281 18Q306 18 327 31T362 65T385 111T396 162H422Q420 138
414 115T395 69T365 28T321 -1T261 -12Q167 -12 108 60T48 237ZM176 256H304Q304 362 291 412T240 462T190 412T176 256ZM104 672Q104 690 116 701T146 712Q174 712 195 680L284 542L264 524L132 624Q104 646 104 672Z" />
<glyph unicode="&#xe9;" glyph-name="eacute" horiz-adv-x="472" d="M48 237Q48 344 107 415T250 486Q311 486 354 443T413 328Q420 296 420 228H176Q176 196 176 179T179 140T187 99Q196 62 222 40T281 18Q306 18 327 31T362 65T385 111T396 162H422Q420 138
414 115T395 69T365 28T321 -1T261 -12Q167 -12 108 60T48 237ZM176 256H304Q304 362 291 412T240 462T190 412T176 256ZM196 542L285 680Q306 712 334 712Q352 712 364 701T376 672Q376 646 348 624L216 524L196 542Z" />
<glyph unicode="&#xea;" glyph-name="ecircumflex" horiz-adv-x="472" d="M48 237Q48 344 107 415T250 486Q311 486 354 443T413 328Q420 296 420 228H176Q176 196 176 179T179 140T187 99Q196 62 222 40T281 18Q306 18 327 31T362 65T385 111T396 162H422Q420
138 414 115T395 69T365 28T321 -1T261 -12Q167 -12 108 60T48 237ZM176 256H304Q304 362 291 412T240 462T190 412T176 256ZM90 548Q116 566 137 586T171 630T191 670T206 708H274Q282 686 289 670T309 631T343 587T390 548L374 524Q340 540 302 567T240 620Q216
594 178 567T106 524L90 548Z" />
<glyph unicode="&#xeb;" glyph-name="edieresis" horiz-adv-x="472" d="M48 237Q48 344 107 415T250 486Q311 486 354 443T413 328Q420 296 420 228H176Q176 196 176 179T179 140T187 99Q196 62 222 40T281 18Q306 18 327 31T362 65T385 111T396 162H422Q420 138
414 115T395 69T365 28T321 -1T261 -12Q167 -12 108 60T48 237ZM176 256H304Q304 362 291 412T240 462T190 412T176 256ZM270 591T270 618T288 663T334 682T379 664T398 618T380 573T334 554T289 572ZM82 591T82 618T100 663T146 682T191 664T210 618T192 573T146
554T101 572Z" />
<glyph unicode="&#xec;" glyph-name="igrave" horiz-adv-x="296" d="M40 0V24H78Q87 24 90 27T94 40V434Q94 443 91 446T78 450H40V474H210V40Q210 31 213 28T226 24H264V0H40ZM272 672Q272 690 284 701T314 712Q342 712 363 680L452 542L432 524L300 624Q272
646 272 672Z" />
<glyph unicode="&#xed;" glyph-name="iacute" horiz-adv-x="296" d="M40 0V24H78Q87 24 90 27T94 40V434Q94 443 91 446T78 450H40V474H210V40Q210 31 213 28T226 24H264V0H40ZM364 542L453 680Q474 712 502 712Q520 712 532 701T544 672Q544 646 516 624L384
524L364 542Z" />
<glyph unicode="&#xee;" glyph-name="icircumflex" horiz-adv-x="282" d="M46 0V24H84Q93 24 96 27T100 40V434Q100 443 97 446T84 450H46V474H216V40Q216 31 219 28T232 24H270V0H46ZM258 548Q284 566 305 586T339 630T359 670T374 708H442Q450 686 457 670T477
631T511 587T558 548L542 524Q508 540 470 567T408 620Q384 594 346 567T274 524L258 548Z" />
<glyph unicode="&#xef;" glyph-name="idieresis" horiz-adv-x="282" d="M46 0V24H84Q93 24 96 27T100 40V434Q100 443 97 446T84 450H46V474H216V40Q216 31 219 28T232 24H270V0H46ZM168 591T168 618T186 663T232 682T277 664T296 618T278 573T232 554T187 572ZM8
591T8 618T26 663T72 682T117 664T136 618T118 573T72 554T27 572Z" />
<glyph unicode="&#xf1;" glyph-name="ntilde" horiz-adv-x="556" d="M40 0V24H78Q87 24 90 27T94 40V434Q94 443 91 446T78 450H40V474H210V385L215 384Q235 430 266 458T339 486Q385 486 416 464Q441 446 455 414T470 348V40Q470 31 473 28T486 24H524V0H306V24H338Q347
24 350 27T354 40V377Q354 454 308 454Q288 454 265 428T226 354T210 254V40Q210 31 213 28T226 24H258V0H40ZM130 564Q130 604 155 638T218 672Q240 672 257 667T300 651Q335 636 364 636Q398 636 404 676H426Q426 636 401 602T338 568Q322 568 307 571T283 578T256
589Q221 604 192 604Q158 604 152 564H130Z" />
<glyph unicode="&#xf2;" glyph-name="ograve" horiz-adv-x="504" d="M176 356T176 237T192 65T252 12T312 65T328 237T312 409T252 462T192 409ZM48 184T48 237T65 336T110 415T175 467T252 486T329 467T394 416T439 337T456 237T439 138T394 59T329 7T252 -12T175
7T110 58T65 137ZM116 672Q116 690 128 701T158 712Q186 712 207 680L296 542L276 524L144 624Q116 646 116 672Z" />
<glyph unicode="&#xf3;" glyph-name="oacute" horiz-adv-x="504" d="M176 356T176 237T192 65T252 12T312 65T328 237T312 409T252 462T192 409ZM48 184T48 237T65 336T110 415T175 467T252 486T329 467T394 416T439 337T456 237T439 138T394 59T329 7T252 -12T175
7T110 58T65 137ZM208 542L297 680Q318 712 346 712Q364 712 376 701T388 672Q388 646 360 624L228 524L208 542Z" />
<glyph unicode="&#xf4;" glyph-name="ocircumflex" horiz-adv-x="504" d="M176 356T176 237T192 65T252 12T312 65T328 237T312 409T252 462T192 409ZM48 184T48 237T65 336T110 415T175 467T252 486T329 467T394 416T439 337T456 237T439 138T394 59T329 7T252
-12T175 7T110 58T65 137ZM102 548Q128 566 149 586T183 630T203 670T218 708H286Q294 686 301 670T321 631T355 587T402 548L386 524Q352 540 314 567T252 620Q228 594 190 567T118 524L102 548Z" />
<glyph unicode="&#xf5;" glyph-name="otilde" horiz-adv-x="504" d="M176 356T176 237T192 65T252 12T312 65T328 237T312 409T252 462T192 409ZM48 184T48 237T65 336T110 415T175 467T252 486T329 467T394 416T439 337T456 237T439 138T394 59T329 7T252 -12T175
7T110 58T65 137ZM104 564Q104 604 129 638T192 672Q214 672 231 667T274 651Q309 636 338 636Q372 636 378 676H400Q400 636 375 602T312 568Q296 568 281 571T257 578T230 589Q195 604 166 604Q132 604 126 564H104Z" />
<glyph unicode="&#xf6;" glyph-name="odieresis" horiz-adv-x="504" d="M176 356T176 237T192 65T252 12T312 65T328 237T312 409T252 462T192 409ZM48 184T48 237T65 336T110 415T175 467T252 486T329 467T394 416T439 337T456 237T439 138T394 59T329 7T252
-12T175 7T110 58T65 137ZM282 591T282 618T300 663T346 682T391 664T410 618T392 573T346 554T301 572ZM94 591T94 618T112 663T158 682T203 664T222 618T204 573T158 554T113 572Z" />
<glyph unicode="&#xf7;" glyph-name="divide" horiz-adv-x="940" d="M392 494T392 528T414 584T470 606T526 584T548 528T526 472T470 450T414 472ZM392 -22T392 12T414 68T470 90T526 68T548 12T526 -44T470 -66T414 -44ZM42 240V304H898V240H42Z" />
<glyph unicode="&#xf8;" glyph-name="oslash" horiz-adv-x="504" d="M48 6L100 71Q48 141 48 237Q48 290 65 336T110 415T175 467T252 486Q328 486 385 426L434 486L456 468L404 403Q456 333 456 237Q456 184 439 138T394 59T329 7T252 -12Q176 -12 119 48L70
-12L48 6ZM180 125Q186 67 203 40T252 12Q296 12 312 65T328 237Q328 286 327 307L180 125ZM176 237Q176 188 177 167L323 348Q317 407 301 434T252 462Q208 462 192 410T176 237Z" />
<glyph unicode="&#xf9;" glyph-name="ugrave" horiz-adv-x="550" d="M24 450V474H204V97Q204 20 250 20Q270 20 293 46T332 120T348 220V434Q348 443 345 446T332 450H284V474H464V40Q464 31 467 28T480 24H518V0H348V89L343 90Q323 44 292 16T219 -12Q173 -12
142 10Q117 28 103 60T88 126V434Q88 443 85 446T72 450H24ZM122 672Q122 690 134 701T164 712Q192 712 213 680L302 542L282 524L150 624Q122 646 122 672Z" />
<glyph unicode="&#xfa;" glyph-name="uacute" horiz-adv-x="550" d="M24 450V474H204V97Q204 20 250 20Q270 20 293 46T332 120T348 220V434Q348 443 345 446T332 450H284V474H464V40Q464 31 467 28T480 24H518V0H348V89L343 90Q323 44 292 16T219 -12Q173 -12
142 10Q117 28 103 60T88 126V434Q88 443 85 446T72 450H24ZM214 542L303 680Q324 712 352 712Q370 712 382 701T394 672Q394 646 366 624L234 524L214 542Z" />
<glyph unicode="&#xfb;" glyph-name="ucircumflex" horiz-adv-x="550" d="M24 450V474H204V97Q204 20 250 20Q270 20 293 46T332 120T348 220V434Q348 443 345 446T332 450H284V474H464V40Q464 31 467 28T480 24H518V0H348V89L343 90Q323 44 292 16T219 -12Q173
-12 142 10Q117 28 103 60T88 126V434Q88 443 85 446T72 450H24ZM108 548Q134 566 155 586T189 630T209 670T224 708H292Q300 686 307 670T327 631T361 587T408 548L392 524Q358 540 320 567T258 620Q234 594 196 567T124 524L108 548Z" />
<glyph unicode="&#xfc;" glyph-name="udieresis" horiz-adv-x="550" d="M24 450V474H204V97Q204 20 250 20Q270 20 293 46T332 120T348 220V434Q348 443 345 446T332 450H284V474H464V40Q464 31 467 28T480 24H518V0H348V89L343 90Q323 44 292 16T219 -12Q173
-12 142 10Q117 28 103 60T88 126V434Q88 443 85 446T72 450H24ZM288 591T288 618T306 663T352 682T397 664T416 618T398 573T352 554T307 572ZM100 591T100 618T118 663T164 682T209 664T228 618T210 573T164 554T119 572Z" />
<glyph unicode="&#xff;" glyph-name="ydieresis" horiz-adv-x="524" d="M12 450V474H257V450H228Q219 450 212 443T204 424Q204 413 211 396L314 149L379 368Q386 396 386 412Q386 427 378 438T355 450H329V474H494V450H472Q454 450 438 434T412 388L260 -117Q224
-238 151 -238Q110 -238 85 -213T60 -147Q60 -114 81 -89T134 -64Q158 -64 173 -78T189 -114Q189 -139 170 -156Q156 -168 156 -182Q156 -191 162 -198T179 -206Q191 -206 201 -192T217 -165T229 -132L262 -22L89 392Q75 424 64 437T27 450H12ZM300 591T300 618T318
663T364 682T409 664T428 618T410 573T364 554T319 572ZM112 591T112 618T130 663T176 682T221 664T240 618T222 573T176 554T131 572Z" />
<glyph unicode="&#x131;" glyph-name="dotlessi" horiz-adv-x="296" d="M40 0V24H78Q87 24 90 27T94 40V434Q94 443 91 446T78 450H40V474H210V40Q210 31 213 28T226 24H264V0H40Z" />
<glyph unicode="&#x152;" glyph-name="OE" horiz-adv-x="1014" d="M70 262T70 356T109 536T215 676T360 730Q388 730 424 721Q467 712 502 712H948L954 480H922Q912 544 882 594Q833 680 762 680H652Q638 680 633 675T628 656V380H679Q706 380 729 402T766 456T779
518H811V205H779Q779 235 766 267T730 321T679 344H628V56Q628 42 633 37T652 32H761Q790 32 815 46T859 83T889 128T909 174Q915 190 920 216T928 259L930 276H962L956 0H502Q467 0 424 -9Q388 -18 360 -18Q283 -18 216 36T109 176ZM240 206Q240 102 270 58T360
14T450 58T480 206V506Q480 610 450 654T360 698T270 654T240 506V206Z" />
<glyph unicode="&#x153;" glyph-name="oe" horiz-adv-x="740" d="M48 170T48 237T74 361T145 452T246 486Q324 486 378 421H382Q438 486 518 486Q579 486 622 443T681 328Q688 296 688 228H444Q444 196 444 179T447 140T455 99Q464 62 490 40T549 18Q574 18 595
31T630 65T653 111T664 162H690Q688 138 682 115T663 69T633 28T589 -1T529 -12Q440 -12 383 54H379Q326 -12 246 -12Q191 -12 146 21T74 112ZM176 281T176 237T177 162T183 101T195 52T215 23T246 12Q288 12 302 68T316 237T302 406T246 462Q228 462 215 451T195
422T184 374T178 312ZM444 256H572Q572 362 559 412T508 462T458 412T444 256Z" />
<glyph unicode="&#x178;" glyph-name="Ydieresis" horiz-adv-x="736" d="M238 827T238 854T256 899T302 918T347 900T366 854T348 809T302 790T257 808ZM442 827T442 854T460 899T506 918T551 900T570 854T552 809T506 790T461 808ZM46 680V712H360V680H332Q318
680 311 670T304 648Q304 632 310 620L442 333L534 562Q548 594 548 619T535 662T494 680H466V712H714V680H684Q650 680 627 659T593 607L458 278V56Q458 42 463 37T482 32H546V0H222V32H286Q300 32 305 37T310 56V269L140 636Q128 662 115 671T81 680H46Z" />
<glyph unicode="&#x192;" glyph-name="florin" horiz-adv-x="580" d="M-26 -57Q-26 -21 -3 3T51 27Q76 27 91 10T107 -30Q107 -42 101 -56T86 -78Q72 -92 72 -108Q72 -134 101 -134Q114 -134 124 -127T142 -105T158 -72T170 -25T181 32T190 103T197 183T205 273L218
446H106L112 474H220Q230 570 256 621Q310 724 422 724Q470 724 502 690T534 610Q534 576 511 555T459 533Q438 533 420 548T401 588Q401 618 426 639Q446 656 446 675Q446 682 439 691T418 700Q400 700 386 690T364 659T349 619T340 569T335 520T333 474H449L443
446H331Q328 335 310 199T266 0Q256 -23 248 -40T223 -82T188 -122T143 -150T86 -162Q40 -162 7 -133T-26 -57Z" />
<glyph unicode="&#x2c6;" glyph-name="circumflex" horiz-adv-x="440" d="M70 548Q96 566 117 586T151 630T171 670T186 708H254Q262 686 269 670T289 631T323 587T370 548L354 524Q320 540 282 567T220 620Q196 594 158 567T86 524L70 548Z" />
<glyph unicode="&#x2c7;" glyph-name="caron" horiz-adv-x="440" d="M74 678L90 694L220 596L350 694L366 678L244 524H196L74 678Z" />
<glyph unicode="&#x2d8;" glyph-name="breve" horiz-adv-x="440" d="M80 694H108Q116 654 144 631T220 608T295 631T332 694H360Q354 626 317 583T220 540T123 583T80 694Z" />
<glyph unicode="&#x2d9;" glyph-name="dotaccent" horiz-adv-x="440" d="M146 586T146 618T167 671T220 692T273 671T294 618T273 565T220 544T167 565Z" />
<glyph unicode="&#x2da;" glyph-name="ring" horiz-adv-x="440" d="M113 578T113 623T144 699T220 730T296 699T327 623T296 547T220 516T144 547ZM157 652T157 623T174 577T220 560T265 577T283 623T266 669T220 686T175 669Z" />
<glyph unicode="&#x2db;" glyph-name="ogonek" horiz-adv-x="440" d="M84 -142Q84 -118 95 -95T128 -51T170 -16T218 16L232 0Q189 -32 171 -58T152 -123Q152 -142 164 -153T194 -164T223 -157T246 -132L266 -146Q252 -178 225 -199T167 -220Q134 -220 109 -198T84 -142Z" />
<glyph unicode="&#x2dc;" glyph-name="tilde" horiz-adv-x="440" d="M72 564Q72 604 97 638T160 672Q182 672 199 667T242 651Q277 636 306 636Q340 636 346 676H368Q368 636 343 602T280 568Q264 568 249 571T225 578T198 589Q163 604 134 604Q100 604 94 564H72Z" />
<glyph unicode="&#x2dd;" glyph-name="hungarumlaut" horiz-adv-x="440" d="M260 542L345 680Q364 712 392 712Q410 712 421 701T432 674Q432 648 405 628L280 524L260 542ZM126 542L211 680Q230 712 258 712Q276 712 287 701T298 674Q298 648 271 628L146 524L126 542Z" />
<glyph unicode="&#x3a9;" glyph-name="Omegagreek" horiz-adv-x="730" d="M76 458Q76 510 92 554T136 630T202 685T284 719T375 730T466 719T548 685T614 631T658 555T674 458Q674 362 613 291T444 181V146Q444 132 449 127T468 122H603Q630 122 633 146L638 202H670L656
0H410V202Q504 234 504 447Q504 568 472 633T375 698T278 633T246 447Q246 234 340 202V0H94L80 202H112L117 146Q120 122 147 122H282Q296 122 301 127T306 146V181Q198 220 137 291T76 458Z" />
<glyph unicode="&#x3c0;" glyph-name="pi" horiz-adv-x="640" d="M28 268Q33 343 63 392Q112 474 202 474H602V352H408V258Q408 196 430 163T493 130Q520 130 537 149T560 198L579 195Q579 152 576 119T562 54T532 5T481 -12Q430 -12 405 25T380 126V352H248V95Q248
50 225 19T167 -12Q134 -12 112 8T89 60Q89 89 102 107T146 148Q186 178 205 225T224 352H141Q106 352 86 330T55 262L28 268Z" />
<glyph unicode="&#x2013;" glyph-name="endash" horiz-adv-x="620" d="M60 240V296H560V240H60Z" />
<glyph unicode="&#x2014;" glyph-name="emdash" horiz-adv-x="1000" d="M60 240V296H940V240H60Z" />
<glyph unicode="&#x2018;" glyph-name="quoteleft" horiz-adv-x="280" d="M42 502Q42 584 90 643T214 730L228 702Q166 678 127 635T88 544Q88 537 92 532T105 526Q113 526 129 534Q147 543 163 543Q190 543 212 524T234 471Q234 431 208 409T148 386Q100 386
71 419T42 502Z" />
<glyph unicode="&#x2019;" glyph-name="quoteright" horiz-adv-x="280" d="M46 645Q46 685 72 707T132 730Q180 730 209 697T238 614Q238 532 190 473T66 386L52 414Q114 438 153 481T192 572Q192 579 188 584T175 590Q167 590 151 582Q133 573 117 573Q90 573
68 592T46 645Z" />
<glyph unicode="&#x201a;" glyph-name="quotesinglbase" horiz-adv-x="280" d="M46 63Q46 103 72 125T132 148Q180 148 209 115T238 32Q238 -50 190 -109T66 -196L52 -168Q114 -144 153 -101T192 -10Q192 -3 188 2T175 8Q167 8 151 0Q133 -9 117 -9Q90 -9 68 10T46 63Z" />
<glyph unicode="&#x201c;" glyph-name="quotedblleft" horiz-adv-x="500" d="M42 502Q42 584 90 643T214 730L228 702Q166 678 127 635T88 544Q88 537 92 532T105 526Q113 526 129 534Q147 543 163 543Q190 543 212 524T234 471Q234 431 208 409T148 386Q100 386
71 419T42 502ZM262 502Q262 584 310 643T434 730L448 702Q386 678 347 635T308 544Q308 537 312 532T325 526Q333 526 349 534Q367 543 383 543Q410 543 432 524T454 471Q454 431 428 409T368 386Q320 386 291 419T262 502Z" />
<glyph unicode="&#x201d;" glyph-name="quotedblright" horiz-adv-x="500" d="M46 645Q46 685 72 707T132 730Q180 730 209 697T238 614Q238 532 190 473T66 386L52 414Q114 438 153 481T192 572Q192 579 188 584T175 590Q167 590 151 582Q133 573 117 573Q90
573 68 592T46 645ZM266 645Q266 685 292 707T352 730Q400 730 429 697T458 614Q458 532 410 473T286 386L272 414Q334 438 373 481T412 572Q412 579 408 584T395 590Q387 590 371 582Q353 573 337 573Q310 573 288 592T266 645Z" />
<glyph unicode="&#x201e;" glyph-name="quotedblbase" horiz-adv-x="500" d="M46 63Q46 103 72 125T132 148Q180 148 209 115T238 32Q238 -50 190 -109T66 -196L52 -168Q114 -144 153 -101T192 -10Q192 -3 188 2T175 8Q167 8 151 0Q133 -9 117 -9Q90 -9 68 10T46
63ZM266 63Q266 103 292 125T352 148Q400 148 429 115T458 32Q458 -50 410 -109T286 -196L272 -168Q334 -144 373 -101T412 -10Q412 -3 408 2T395 8Q387 8 371 0Q353 -9 337 -9Q310 -9 288 10T266 63Z" />
<glyph unicode="&#x2020;" glyph-name="dagger" horiz-adv-x="540" d="M32 460T32 493T53 550T106 575Q146 575 190 539Q226 510 255 507Q252 536 223 572Q187 616 187 656Q187 688 211 709T269 730T326 709T351 656Q351 616 315 572Q286 536 283 507Q312 510
348 539Q392 575 432 575Q464 575 485 551T506 493T485 436T432 411Q392 411 348 447Q312 476 283 479Q283 444 299 406T339 346Q322 324 311 301T296 250T291 201T289 144V-168H249V144Q249 179 248 200T242 250T227 301T199 346Q222 368 238 406T255 479Q226
476 190 447Q146 411 106 411Q74 411 53 435Z" />
<glyph unicode="&#x2021;" glyph-name="daggerdbl" horiz-adv-x="540" d="M32 36T32 69T53 126T106 151Q146 151 190 115Q226 86 255 83Q255 144 198 187Q224 206 239 230T254 281T239 331T198 375Q255 418 255 479Q226 476 190 447Q146 411 106 411Q74 411 53
435T32 493T53 550T106 575Q146 575 190 539Q226 510 255 507Q252 536 223 572Q187 616 187 656Q187 688 211 709T269 730T326 709T351 656Q351 616 315 572Q286 536 283 507Q312 510 348 539Q392 575 432 575Q464 575 485 551T506 493T485 436T432 411Q392 411
348 447Q312 476 283 479Q283 416 338 375Q286 336 286 281T338 187Q283 146 283 83Q312 86 348 115Q392 151 432 151Q464 151 485 127T506 69T485 12T432 -13Q392 -13 348 23Q312 52 283 55Q286 26 315 -10Q351 -54 351 -94Q351 -126 327 -147T269 -168T212 -147T187
-94Q187 -54 223 -10Q252 26 255 55Q226 52 190 23Q146 -13 106 -13Q74 -13 53 11Z" />
<glyph unicode="&#x2022;" glyph-name="bullet" horiz-adv-x="500" d="M90 286T90 354T136 468T250 514T364 468T410 354T364 240T250 194T136 240Z" />
<glyph unicode="&#x2026;" glyph-name="ellipsis" horiz-adv-x="840" d="M62 32T62 66T84 122T140 144T196 122T218 66T196 10T140 -12T84 10ZM342 32T342 66T364 122T420 144T476 122T498 66T476 10T420 -12T364 10ZM622 32T622 66T644 122T700 144T756 122T778
66T756 10T700 -12T644 10Z" />
<glyph unicode="&#x2030;" glyph-name="perthousand" horiz-adv-x="1220" d="M944 166Q944 76 954 40T988 4T1023 40T1034 166T1023 293T988 330T954 294T944 166ZM848 85T848 166T890 298T988 350T1087 299T1130 166Q1130 86 1088 35T988 -16Q932 -16 890 34ZM188
-18L620 730H670L238 -18H188ZM584 166Q584 76 594 40T628 4T663 40T674 166T663 293T628 330T594 294T584 166ZM488 85T488 166T530 298T628 350T727 299T770 166Q770 86 728 35T628 -16Q572 -16 530 34ZM186 546Q186 456 196 420T230 384T265 420T276 546T265
673T230 710T196 674T186 546ZM90 465T90 546T132 678T230 730T329 679T372 546Q372 466 330 415T230 364Q174 364 132 414Z" />
<glyph unicode="&#x2039;" glyph-name="guilsinglleft" horiz-adv-x="330" d="M108 103T108 237T232 446L248 430Q216 394 206 358T196 237T206 116T248 44L232 28Q108 103 108 237Z" />
<glyph unicode="&#x203a;" glyph-name="guilsinglright" horiz-adv-x="330" d="M82 44Q114 80 124 116T134 237T124 358T82 430L98 446Q222 371 222 237T98 28L82 44Z" />
<glyph unicode="&#x2044;" glyph-name="fraction" horiz-adv-x="82" d="M-134 -198L148 730H216L-66 -198H-134Z" />
<glyph unicode="&#x20ac;" glyph-name="Euro" horiz-adv-x="580" d="M26 297L31 330H65Q64 339 64 356Q64 376 65 388H26L31 421H67Q74 487 93 540T139 628T200 685T267 718T335 728Q401 728 451 683Q474 663 485 663T501 681L512 721H548V492H510Q493 579 445
637T345 696Q326 696 311 691T281 673T256 637T240 579T234 494V421H440L434 388H234V330H426L421 297H234V194Q234 149 243 115T266 63T298 33T332 19T364 16Q405 16 437 40T488 100T512 177H548Q544 150 537 126T514 75T479 29T427 -3T356 -16Q300 -16 252 3T165
59T100 157T67 297H26Z" />
<glyph unicode="&#x2122;" glyph-name="trademark" horiz-adv-x="1082" d="M477 300V324Q508 324 524 338T541 379V672Q541 681 538 684T525 688H477V712H643L770 442L866 712H1042V688H1004Q995 688 992 685T988 672V340Q988 331 991 328T1004 324H1042V300H818V324H856Q865
324 868 327T872 340V645L747 292H718L573 598H569V379Q569 352 585 338T633 324V300H477ZM36 539L42 712H442L448 539H420Q414 572 392 619Q378 646 358 667T316 688Q306 688 303 685T300 674V340Q300 331 303 328T316 324H372V300H112V324H168Q177 324 180 327T184
340V674Q184 682 181 685T168 688Q146 688 126 667T92 619Q82 598 75 578T66 548L64 539H36Z" />
<glyph unicode="&#x2202;" glyph-name="partialdiff" horiz-adv-x="560" d="M150 120Q150 74 168 43T215 12Q283 12 323 141Q352 234 352 312Q352 358 334 389T287 420Q219 420 179 291Q150 198 150 120ZM48 167Q48 236 73 295T139 394Q161 416 187 428T232 442T274
444Q343 444 378 369H386Q394 396 401 447T408 527T406 579T398 624T382 661T355 685T314 695Q286 695 255 667T198 589L142 622Q214 720 317 720Q353 720 384 707T437 673T474 624T497 566T504 506Q504 425 486 328T432 148Q362 -12 215 -12Q142 -12 95 36T48
167Z" />
<glyph unicode="&#x2206;" glyph-name="uni2206" horiz-adv-x="660" d="M54 0V32L325 730H374L636 0H54ZM128 122H456L298 561L128 122Z" />
<glyph unicode="&#x220f;" glyph-name="product" horiz-adv-x="836" d="M62 -166H132Q146 -166 151 -161T156 -142V656Q156 670 151 675T132 680H62V712H794V680H724Q710 680 705 675T700 656V-142Q700 -156 705 -161T724 -166H794V-198H464V-166H528Q542 -166
547 -161T552 -142V656Q552 670 547 675T528 680H328Q314 680 309 675T304 656V-142Q304 -156 309 -161T328 -166H392V-198H62V-166Z" />
<glyph unicode="&#x2211;" glyph-name="summation" horiz-adv-x="760" d="M66 -166L366 203L102 661V712H694V412H662Q662 422 660 438T650 493T629 559Q574 680 477 680H264L485 297L183 -76H543Q584 -76 615 -48T659 30Q664 50 667 73T671 110L672 124H704V-198H66V-166Z"
/>
<glyph unicode="&#x221a;" glyph-name="radical" horiz-adv-x="772" d="M12 322L232 487L414 61L646 862H772V822H679L393 -157H353L132 362L34 289L12 322Z" />
<glyph unicode="&#x221e;" glyph-name="infinity" horiz-adv-x="924" d="M44 264Q44 353 106 414T254 476Q304 476 346 453T439 386L488 335Q514 367 535 389T583 433T639 465T700 476Q778 476 829 424T880 284Q880 195 818 134T670 72Q572 72 485 162L436 213Q410
181 389 159T341 115T285 83T224 72Q146 72 95 124T44 264ZM511 311L583 239Q628 197 664 175T732 152Q778 152 811 190T844 292Q844 362 801 403T698 444Q649 444 606 410T511 311ZM80 256Q80 186 123 145T226 104Q275 104 318 138T413 237L341 309Q296 351 260
373T192 396Q146 396 113 358T80 256Z" />
<glyph unicode="&#x222b;" glyph-name="integral'" horiz-adv-x="464" d="M28 -194Q28 -165 37 -140T67 -96T118 -78T168 -95T188 -144Q188 -182 153 -202Q136 -212 130 -219T124 -235Q124 -262 152 -262Q176 -262 198 -234T220 -162Q220 -20 194 211Q172 396
172 498Q172 568 181 625T209 727T260 797T337 822Q372 822 404 793T436 722Q436 693 427 668T397 624T346 606T296 623T276 672Q276 710 311 730Q328 740 334 747T340 763Q340 790 312 790Q288 790 266 762T244 690Q244 548 270 317Q292 132 292 30Q292 -40 283
-97T255 -199T204 -269T127 -294Q92 -294 60 -265T28 -194Z" />
<glyph unicode="&#x2248;" glyph-name="approxequal" horiz-adv-x="924" d="M44 305Q61 340 79 365T122 413T182 448T258 460Q295 460 343 448T424 424L514 389L596 356Q626 345 667 335T737 324Q759 324 778 331T809 347T835 372T856 401T874 433L904 415Q887
380 869 355T826 307T766 272T690 260Q653 260 605 272T524 296L434 331L352 364Q322 375 281 385T211 396Q189 396 170 389T139 373T113 348T92 319T74 287L44 305ZM44 129Q61 164 79 189T122 237T182 272T258 284Q295 284 343 272T424 248L514 213L596 180Q626
169 667 159T737 148Q759 148 778 155T809 171T835 196T856 225T874 257L904 239Q887 204 869 179T826 131T766 96T690 84Q653 84 605 96T524 120L434 155L352 188Q322 199 281 209T211 220Q189 220 170 213T139 197T113 172T92 143T74 111L44 129Z" />
<glyph unicode="&#x2260;" glyph-name="notequal" horiz-adv-x="940" d="M48 136V200H403L468 344H48V408H498L636 712H704L566 408H892V344H536L471 200H892V136H442L304 -168H236L374 136H48Z" />
<glyph unicode="&#x2264;" glyph-name="lessequal" horiz-adv-x="940" d="M56 176L82 236L896 -108L870 -168L56 176ZM56 344V372L858 716L884 656L188 358L884 60L858 0L56 344Z" />
<glyph unicode="&#x2265;" glyph-name="greaterequal" horiz-adv-x="940" d="M44 -108L858 236L884 176L70 -168L44 -108ZM56 60L752 358L56 656L82 716L884 372V344L82 0L56 60Z" />
<glyph unicode="&#x25ca;" glyph-name="lozenge" horiz-adv-x="552" d="M112 356L276 70L440 356L276 642L112 356ZM40 356L256 730H296L512 356L296 -18H256L40 356Z" />
<glyph unicode="&#xfb01;" glyph-name="fi" horiz-adv-x="562" d="M30 0V24H86Q95 24 98 27T102 40V446H30V474H102V499Q102 554 120 597T170 666T240 706T322 720Q356 720 384 712T430 690T460 660T477 629T482 599Q482 564 462 541T409 518Q382 518 364 534T346
576Q346 606 368 626Q386 642 386 657Q386 673 367 684T317 696Q300 696 284 689T253 666T228 621T218 554V474H476V40Q476 31 479 28T492 24H530V0H306V24H344Q353 24 356 27T360 40V430Q360 439 357 442T344 446H218V40Q218 31 221 28T234 24H266V0H30Z" />
<glyph unicode="&#xfb02;" glyph-name="fl" horiz-adv-x="564" d="M30 0V24H86Q95 24 98 27T102 40V446H30V474H102V499Q102 554 120 597T170 666T240 706T322 720Q355 720 384 712H476V40Q476 31 479 28T492 24H542V0H306V24H344Q353 24 356 27T360 40V430Q360
439 357 442T344 446H218V40Q218 31 221 28T234 24H266V0H30ZM218 474H360V539Q346 553 346 576Q346 600 360 617V688Q341 696 317 696Q300 696 284 689T253 666T228 621T218 554V474Z" />
</font>
</defs>
</svg>
