<?xml version="1.0" encoding="utf-8"?>
<!DOCTYPE svg PUBLIC "-//W3C//DTD SVG 1.1//EN" "http://www.w3.org/Graphics/SVG/1.1/DTD/svg11.dtd">
<svg version="1.1" id="fp43" xmlns="http://www.w3.org/2000/svg" xmlns:xlink="http://www.w3.org/1999/xlink" width="43px" height="43px" viewBox="0 0 43 43">
	<defs>
		<radialGradient id="gradient" cx="-18.4604" cy="-20.0962" r="83.6018" gradientTransform="matrix(1 0 0 1 -1 -1)" gradientUnits="userSpaceOnUse">
			<stop offset="0" style="stop-color:#808080;stop-opacity:0.2"/>
			<stop offset="1" style="stop-color:#000000;stop-opacity:0.7"/>
		</radialGradient>
	</defs>
	<g>
		<rect style="fill-rule:evenodd;clip-rule:evenodd;fill:url(#gradient);" width="43" height="43"/> 
		<path style="fill-rule:evenodd;clip-rule:evenodd;fill:#FFFFFF;opacity:1.0;" d="M24.209,11.073c-0.918,0.858-1.653,1.955-2.353,3.089
			c-0.696,1.134-1.308,2.368-1.827,3.616c-0.531,1.281-0.951,2.625-1.482,3.917c-0.519,1.282-1.116,2.527-1.781,3.661
			c-1.325,2.254-3.13,4.324-6.575,4.312c0,1.721,0,3.432,0,5.144c8.09,0.004,10.81-5.354,13.32-10.938c2.107,0,6.323,0,6.323,0V18.65
			c0,0-2.819,0-4.193,0c1.317-2.801,2.955-5.646,7.145-5.706c0-1.714,0-3.425,0-5.145C28.911,7.857,26.237,9.167,24.209,11.073z"/>	
		<text x="22" y="36" style="font: 18%/1 helvetica,sans-serif;fill:#FFFFFF;">TM</text>
	</g>
</svg>
