<?xml version="1.0" encoding="UTF-8"?>
<svg width="512px" height="512px" viewBox="0 0 512 512" version="1.1" xmlns="http://www.w3.org/2000/svg" xmlns:xlink="http://www.w3.org/1999/xlink">
	<!-- Generator: Sketch 40.3 (33839) - http://www.bohemiancoding.com/sketch -->
	<title>prtfl</title>
	<desc>Created with Sketch.</desc>
	<defs></defs>
	<g id="Page-1" stroke="none" stroke-width="1" fill="none" fill-rule="evenodd">
		<rect fill="#D0011B" x="0" y="0" width="512" height="512"></rect>
<!--         <circle" fill="#D0011B" cx="256" cy="256" r="256"></circle> -->
		<path d="M86.1260097,249.03231 L86.1260097,200.024233 L94.3974152,200.024233 C108.872375,200.024233 114.042003,206.848142 114.042003,222.977383 C114.042003,242.001616 109.9063,249.03231 93.3634895,249.03231 L86.1260097,249.03231 Z M64,330.505654 L86.1260097,330.505654 L86.1260097,268.263328 L95.8449111,268.263328 C124.79483,268.263328 136.581583,255.442649 136.581583,224.011309 C136.581583,190.305331 125.001616,181 91.5024233,181 L64,181 L64,330.505654 Z M152.090468,330.505654 L174.216478,330.505654 L174.216478,267.642973 L183.93538,267.642973 L201.512116,330.505654 L224.258481,330.505654 L204.613893,262.886914 C216.814216,256.476575 221.983845,244.276252 221.983845,224.631664 C221.983845,190.718901 210.403877,181 176.491115,181 L152.090468,181 L152.090468,330.505654 Z M174.216478,248.411955 L174.216478,200.024233 L181.453958,200.024233 C195.101777,200.024233 199.444265,206.641357 199.444265,223.390953 C199.444265,242.208401 194.894992,248.411955 179.592892,248.411955 L174.216478,248.411955 Z M251.140549,330.505654 L273.266559,330.505654 L273.266559,200.024233 L293.738288,200.024233 L293.738288,181 L230.668821,181 L230.668821,200.024233 L251.140549,200.024233 L251.140549,330.505654 Z M308.213247,330.505654 L331.786753,330.505654 L331.786753,263.0937 L361.150242,263.0937 L361.150242,242.208401 L331.786753,242.208401 L331.786753,201.058158 L371.903069,201.058158 L371.903069,181 L308.213247,181 L308.213247,330.505654 Z M385.344103,330.505654 L448,330.505654 L448,309.827141 L407.470113,309.827141 L407.470113,181 L385.344103,181 L385.344103,330.505654 Z" id="PRTFL" fill="#FFFFFF"></path>
	</g>
</svg>